<svg xmlns="http://www.w3.org/2000/svg" viewBox="0 0 405.54 405.54">
  <defs>
    <style>
      .cls-1{font-size:39.5px;fill:var(--color-line, #32302a);font-family:Arial, sans-serif;font-weight:400;}
      .cls-2{fill:none;stroke:var(--color-line, #32302a);stroke-miterlimit:10;stroke-width:3px;}
    </style>
  </defs>
  <title>Atano</title>
  <g id="Layer_2" data-name="Layer 2">
    <g id="Layer_1-2" data-name="Layer 1">
      <text class="cls-1" transform="translate(138.5 68.5) rotate(-20)">A</text>
      <text class="cls-1" transform="translate(162.5 60) rotate(-10)">T</text>
      <text class="cls-1" transform="translate(186.5 55) rotate(0)">A</text>
      <text class="cls-1" transform="translate(212.5 54) rotate(10)">N</text>
      <text class="cls-1" transform="translate(240.5 58) rotate(20)">O</text>
      <text class="cls-1" transform="translate(268.5 68) rotate(32)"> </text>
      <text class="cls-1" transform="translate(280.5 75) rotate(38)">•</text>
      <text class="cls-1" transform="translate(295.5 86) rotate(48)"> </text>
      <text class="cls-1" transform="translate(310.5 100) rotate(58)">A</text>
      <text class="cls-1" transform="translate(325.5 118) rotate(70)">T</text>
      <text class="cls-1" transform="translate(338.5 140) rotate(80)">A</text>
      <text class="cls-1" transform="translate(348.5 165) rotate(90)">N</text>
      <text class="cls-1" transform="translate(352.5 195) rotate(100)">O</text>
      <text class="cls-1" transform="translate(350.5 225) rotate(112)"> </text>
      <text class="cls-1" transform="translate(345.5 245) rotate(118)">•</text>
      <text class="cls-1" transform="translate(335.5 268) rotate(128)"> </text>
      <text class="cls-1" transform="translate(320.5 290) rotate(140)">A</text>
      <text class="cls-1" transform="translate(302.5 310) rotate(150)">T</text>
      <text class="cls-1" transform="translate(280.5 328) rotate(160)">A</text>
      <text class="cls-1" transform="translate(255.5 342) rotate(170)">N</text>
      <text class="cls-1" transform="translate(228.5 350) rotate(180)">O</text>
      <text class="cls-1" transform="translate(200.5 352) rotate(192)"> </text>
      <text class="cls-1" transform="translate(180.5 350) rotate(198)">•</text>
      <text class="cls-1" transform="translate(158.5 345) rotate(208)"> </text>
      <text class="cls-1" transform="translate(135.5 335) rotate(220)">A</text>
      <text class="cls-1" transform="translate(115.5 318) rotate(230)">T</text>
      <text class="cls-1" transform="translate(98.5 298) rotate(240)">A</text>
      <text class="cls-1" transform="translate(82.5 275) rotate(250)">N</text>
      <text class="cls-1" transform="translate(68.5 248) rotate(260)">O</text>
      <text class="cls-1" transform="translate(58.5 220) rotate(272)"> </text>
      <text class="cls-1" transform="translate(55.5 198) rotate(278)">•</text>
      <text class="cls-1" transform="translate(55.5 175) rotate(288)"> </text>
      <text class="cls-1" transform="translate(60.5 150) rotate(300)">A</text>
      <text class="cls-1" transform="translate(72.5 125) rotate(310)">T</text>
      <text class="cls-1" transform="translate(88.5 102) rotate(320)">A</text>
      <text class="cls-1" transform="translate(108.5 82) rotate(330)">N</text>
      <text class="cls-1" transform="translate(130.5 68) rotate(340)">O</text>
      <circle class="cls-2" cx="202.77" cy="202.77" r="121.05"/>
      <circle class="cls-2" cx="202.77" cy="202.77" r="201.27"/>
    </g>
  </g>
</svg>