<?xml version="1.0" encoding="utf-8"?>
<!-- Generator: Adobe Illustrator 24.0.2, SVG Export Plug-In . SVG Version: 6.00 Build 0)  -->
<svg version="1.1" id="Layer_1" xmlns="http://www.w3.org/2000/svg" xmlns:xlink="http://www.w3.org/1999/xlink" x="0px" y="0px"
	 viewBox="0 0 405.5 405.5" style="enable-background:new 0 0 405.5 405.5;" xml:space="preserve">
<style type="text/css">
	.st0{fill:none;stroke:#32302A;stroke-width:3;stroke-miterlimit:10;}
	.st1{fill:#32302A;}
</style>
<title>Asset 5</title>
<g id="Layer_2_1_">
	<g id="Layer_1-2">
		<circle class="st0" cx="202.8" cy="202.8" r="121.1"/>
		<circle class="st0" cx="202.8" cy="202.8" r="201.3"/>
		<g>
			<g>
				<path class="st1" d="M121.8,82.7c-1.7,1.2-3.5,1.8-5.4,1.8c-1.9,0-3.7-0.4-5.4-1.4s-3.3-2.4-4.6-4.3c-1.3-1.9-2.1-3.8-2.4-5.8
					c-0.3-2-0.1-3.8,0.6-5.6c0.7-1.7,2-3.2,3.7-4.4c0.8-0.6,1.8-1,2.7-1.2c1-0.2,1.9-0.3,2.9-0.2l0.4-2.3l0.4-0.3l3.6,5.2l-0.5,0.4
					c-0.7-1-1.6-1.6-2.6-2s-2.1-0.5-3.2-0.3c-1.1,0.2-2.1,0.6-3,1.2c-1.1,0.8-1.9,1.7-2.3,2.7c-0.4,1-0.6,2.2-0.4,3.4
					c0.1,1.2,0.5,2.4,1,3.7c0.5,1.3,1.2,2.5,2,3.6c0.8,1.2,1.7,2.2,2.6,3.2c1,1,2,1.7,3.1,2.3c1.1,0.6,2.2,0.8,3.3,0.8
					c1.1,0,2.2-0.4,3.3-1.1c0.8-0.6,1.5-1.2,2-1.9c0.5-0.7,0.9-1.5,1.1-2.3s0.2-1.6,0.1-2.4c-0.1-0.8-0.4-1.5-0.8-2.2l0.5-0.4
					l3.6,5.2l-0.4,0.3l-2.2-0.7c-0.2,0.9-0.6,1.9-1.2,2.7C123.5,81.3,122.7,82,121.8,82.7z"/>
				<path class="st1" d="M139.7,72.4c-1.4,0.7-2.8,1-4.2,1c-1.4,0-2.7-0.3-3.9-1c-1.2-0.6-2.4-1.5-3.4-2.6c-1-1.1-1.9-2.4-2.6-3.9
					c-0.7-1.5-1.2-3-1.4-4.5c-0.2-1.5-0.2-2.9,0.2-4.3c0.3-1.4,0.9-2.6,1.7-3.7c0.8-1.1,1.9-2,3.3-2.6c1.3-0.7,2.7-1,4.1-0.9
					c1.4,0,2.7,0.3,3.9,1c1.3,0.6,2.4,1.5,3.5,2.6s1.9,2.4,2.6,3.9c0.7,1.5,1.2,3,1.4,4.5s0.2,2.9-0.1,4.3c-0.3,1.4-0.9,2.6-1.7,3.7
					S141.1,71.7,139.7,72.4z M139.5,71.9c1.2-0.6,2.1-1.3,2.5-2.3c0.5-0.9,0.7-2,0.6-3.2c-0.1-1.2-0.3-2.4-0.8-3.7
					c-0.4-1.3-1-2.6-1.6-3.8c-0.6-1.3-1.3-2.5-2.1-3.6c-0.8-1.1-1.6-2.1-2.5-2.9c-0.9-0.8-1.9-1.3-2.9-1.5c-1-0.2-2.1-0.1-3.2,0.5
					c-1.1,0.6-1.9,1.3-2.4,2.2c-0.5,0.9-0.7,2-0.6,3.2c0,1.2,0.3,2.4,0.7,3.7c0.4,1.3,0.9,2.6,1.5,3.9c0.6,1.3,1.3,2.5,2,3.6
					c0.7,1.1,1.5,2.1,2.4,2.9c0.9,0.8,1.8,1.3,2.9,1.5C137.1,72.7,138.2,72.5,139.5,71.9z"/>
				<path class="st1" d="M146.5,43.8l6.3,21.8l2.2-0.6l0.2,0.6l-4.9,1.4l-0.2-0.6l2.1-0.6l-6.1-21.2l-2.3,0.7l-0.2-0.6L146.5,43.8z
					 M161,64.1l-14.8-20.2l2.9-0.8l12.3,16.6l1.1-20.5l0.6-0.2l-1.3,24.9L161,64.1z M167.8,37.7l0.2,0.6l-2.1,0.6L172,60l2.1-0.6
					l0.2,0.6l-7.3,2.1l-0.2-0.6l2.4-0.7l-6.3-21.8L167.8,37.7z"/>
				<path class="st1" d="M175.9,36.4l2.3,22.5l2.3-0.2l0.1,0.6l-5.1,0.5l-0.1-0.6l2.2-0.2l-2.2-21.9l-2.3,0.2l-0.1-0.6L175.9,36.4z
					 M186.5,59l-11-22.6l3-0.3l9.1,18.6l4.7-20l0.6-0.1l-5.7,24.3L186.5,59z M197.9,34.2l0.1,0.6l-2.2,0.2l2.2,21.9l2.2-0.2l0.1,0.6
					l-7.6,0.8l-0.1-0.6l2.5-0.3l-2.3-22.5L197.9,34.2z"/>
				<path class="st1" d="M224.9,35.7l0,0.6l-2.7-0.2l-9.8,22.5l-0.7,0L205.2,35l-2.4-0.2l0-0.6l9,0.6l0,0.6l-3.2-0.2l4.9,19.4
					l8-18.5l-3.8-0.3l0-0.6L224.9,35.7z"/>
				<path class="st1" d="M241,38.5l2.6,24.3l2.4,0.5l-0.1,0.6l-8.8-2l0.1-0.6l3.1,0.7l-1.7-19.7L228,59.2l3.2,0.7l-0.1,0.6l-6.6-1.5
					l0.1-0.6l2.8,0.6l13.1-20.7L241,38.5z M231.6,53.2l0.1-0.6l9.8,2.2l-0.1,0.6L231.6,53.2z"/>
				<path class="st1" d="M274.6,50.4l-0.2,0.6l-2.7-1.1l-5.8,14.4c-0.9,2.4-2.2,3.9-3.7,4.7c-1.5,0.7-3.4,0.6-5.7-0.3
					c-2.5-1-4.1-2.3-4.8-3.8c-0.7-1.6-0.6-3.6,0.4-6.1l5.8-14.4l-2.6-1l0.2-0.6l8.2,3.3l-0.2,0.6l-2.9-1.2l-5.7,14.1
					c-0.4,0.9-0.7,1.9-0.8,2.7s-0.2,1.7-0.1,2.4c0.1,0.7,0.4,1.4,1,2c0.5,0.6,1.3,1.1,2.3,1.5c1.2,0.5,2.3,0.7,3.3,0.5
					c1-0.1,1.9-0.5,2.7-1.3c0.8-0.8,1.5-1.9,2.1-3.4l5.8-14.4l-2.6-1.1l0.2-0.6L274.6,50.4z"/>
				<path class="st1" d="M267.1,72.6l0.3-0.5l2.4,1.4l10.9-19.1l-2.4-1.4l0.3-0.5l7.4,4.2l-0.3,0.5l-2.4-1.4l-10.9,19.1l4.2,2.4
					c1.1,0.6,2,1,2.8,1.1s1.5,0,2.1-0.3s1.2-0.8,1.6-1.4c0.5-0.6,1-1.4,1.5-2.2l0.5,0.3l-3.5,6.1L267.1,72.6z"/>
				<path class="st1" d="M286.4,84.3l0.4-0.5l2.7,2.1l13.3-17.6l-2.5-1.9c-0.7-0.5-1.4-0.9-2-1s-1.2,0-1.8,0.2
					c-0.6,0.3-1.1,0.7-1.7,1.2c-0.6,0.6-1.1,1.2-1.7,2l-0.5-0.4l4.2-5.6l15.1,11.5l-4.2,5.6l-0.5-0.4c0.6-0.8,1.1-1.5,1.5-2.2
					c0.4-0.7,0.6-1.4,0.7-2c0.1-0.6,0-1.2-0.3-1.8c-0.3-0.6-0.8-1.1-1.5-1.7l-2.5-1.9l-13.3,17.6l2.7,2.1l-0.4,0.5L286.4,84.3z"/>
				<path class="st1" d="M312.4,94.2c-0.2-0.2-0.4-0.5-0.5-0.8s-0.1-0.6,0-1c0.1-0.3,0.2-0.6,0.5-0.8c0.2-0.2,0.5-0.4,0.8-0.5
					c0.3-0.1,0.6-0.1,1,0s0.6,0.2,0.8,0.5s0.4,0.5,0.5,0.8c0.1,0.3,0.1,0.6,0,1c-0.1,0.3-0.2,0.6-0.5,0.8c-0.2,0.2-0.5,0.4-0.8,0.5
					c-0.3,0.1-0.6,0.1-1,0C313,94.6,312.7,94.4,312.4,94.2z"/>
				<path class="st1" d="M319.9,118c-1.2-1.7-1.9-3.5-2-5.4c-0.1-1.9,0.3-3.7,1.2-5.5c0.9-1.8,2.3-3.3,4.2-4.7
					c1.9-1.4,3.8-2.2,5.7-2.6c2-0.4,3.8-0.2,5.6,0.4c1.8,0.7,3.3,1.8,4.5,3.5c0.6,0.8,1,1.7,1.3,2.7s0.4,1.9,0.3,2.9l2.3,0.3
					l0.3,0.4l-5.1,3.8l-0.4-0.5c0.9-0.8,1.6-1.7,1.9-2.7c0.3-1,0.4-2.1,0.2-3.2c-0.2-1.1-0.6-2.1-1.3-3c-0.8-1.1-1.7-1.8-2.8-2.2
					s-2.2-0.5-3.4-0.3c-1.2,0.2-2.4,0.6-3.6,1.1c-1.2,0.6-2.4,1.3-3.5,2.1c-1.1,0.8-2.2,1.8-3.1,2.8c-0.9,1-1.6,2-2.2,3.1
					c-0.5,1.1-0.8,2.2-0.7,3.3c0,1.1,0.5,2.2,1.3,3.3c0.6,0.8,1.3,1.5,2,2s1.5,0.8,2.3,1c0.8,0.2,1.6,0.2,2.4,0s1.5-0.5,2.2-0.9
					l0.4,0.5l-5.1,3.8l-0.3-0.4l0.6-2.3c-1-0.2-1.9-0.6-2.8-1.1C321.4,119.7,320.6,118.9,319.9,118z"/>
				<path class="st1" d="M330.8,135.6c-0.7-1.4-1.1-2.8-1.1-4.2c0-1.4,0.2-2.7,0.8-4c0.6-1.3,1.4-2.4,2.5-3.5s2.3-2,3.8-2.7
					c1.5-0.8,2.9-1.3,4.4-1.5s2.9-0.3,4.3,0c1.4,0.3,2.6,0.8,3.7,1.6c1.1,0.8,2,1.9,2.7,3.2c0.7,1.3,1.1,2.7,1.1,4s-0.2,2.7-0.8,4
					s-1.4,2.5-2.4,3.6c-1.1,1.1-2.3,2-3.8,2.8c-1.5,0.8-2.9,1.3-4.4,1.6c-1.5,0.3-2.9,0.3-4.3,0.1c-1.4-0.2-2.6-0.8-3.7-1.6
					C332.5,138,331.6,136.9,330.8,135.6z M331.3,135.3c0.6,1.2,1.4,2,2.4,2.4c1,0.4,2,0.6,3.2,0.5c1.2-0.1,2.4-0.4,3.7-0.9
					c1.3-0.5,2.5-1.1,3.8-1.7c1.2-0.7,2.4-1.4,3.5-2.2c1.1-0.8,2-1.7,2.8-2.6c0.7-0.9,1.2-1.9,1.4-2.9c0.2-1,0-2.1-0.6-3.2
					c-0.6-1.1-1.4-1.9-2.3-2.3c-1-0.4-2-0.6-3.2-0.5s-2.4,0.4-3.7,0.8c-1.3,0.5-2.6,1-3.8,1.7c-1.2,0.7-2.4,1.4-3.5,2.1
					c-1.1,0.8-2.1,1.6-2.8,2.5c-0.8,0.9-1.2,1.9-1.4,2.9S330.7,134.1,331.3,135.3z"/>
				<path class="st1" d="M359.7,141.3l-21.5,7.1l0.7,2.2l-0.6,0.2l-1.6-4.9l0.6-0.2l0.7,2.1l20.9-6.9l-0.7-2.2l0.6-0.2L359.7,141.3z
					 M339.9,156.6l19.7-15.5l0.9,2.8l-16.2,12.9l20.5,0.3l0.2,0.6l-24.9-0.4L339.9,156.6z M366.6,162.4l-0.6,0.2l-0.7-2.1l-20.9,6.9
					l0.7,2.1l-0.6,0.2l-2.4-7.2l0.6-0.2l0.8,2.4l21.5-7.1L366.6,162.4z"/>
				<path class="st1" d="M368.2,170.4l-22.4,3.1l0.3,2.3l-0.6,0.1l-0.7-5.1l0.6-0.1l0.3,2.2l21.8-3l-0.3-2.3l0.6-0.1L368.2,170.4z
					 M345.9,181.8l22.2-11.8l0.4,2.9l-18.2,9.8l20.1,4l0.1,0.6l-24.4-4.8L345.9,181.8z M371.2,192.3l-0.6,0.1l-0.3-2.1l-21.8,3
					l0.3,2.1l-0.6,0.1l-1-7.5l0.6-0.1l0.3,2.5l22.4-3.1L371.2,192.3z"/>
				<path class="st1" d="M370.6,219.3l-0.6,0l0.1-2.7l-22.8-9l0-0.7l23.3-7.3l0.1-2.4l0.6,0l-0.3,9l-0.6,0l0.1-3.2l-19.2,5.6
					l18.8,7.3l0.1-3.8l0.6,0L370.6,219.3z"/>
				<path class="st1" d="M368.4,235.6l-24.2,3.5l-0.5,2.4l-0.6-0.1l1.7-8.8l0.6,0.1l-0.6,3.1l19.7-2.4l-17.3-10l-0.6,3.2l-0.6-0.1
					l1.3-6.7l0.6,0.1l-0.5,2.8l21.2,12.3L368.4,235.6z M353.3,226.7l0.6,0.1l-1.9,9.9l-0.6-0.1L353.3,226.7z"/>
				<path class="st1" d="M357.7,269.6l-0.6-0.2l1-2.8l-14.6-5.2c-2.4-0.9-4-2-4.8-3.6c-0.8-1.5-0.8-3.4,0.1-5.7
					c0.9-2.5,2.1-4.2,3.7-4.9c1.5-0.8,3.6-0.7,6.1,0.2l14.6,5.2l0.9-2.6l0.6,0.2l-3,8.3l-0.6-0.2l1-2.9l-14.3-5.1
					c-1-0.3-1.9-0.6-2.8-0.7c-0.9-0.2-1.7-0.2-2.4,0c-0.7,0.1-1.4,0.5-2,1s-1.1,1.3-1.4,2.4c-0.4,1.2-0.6,2.3-0.4,3.3
					c0.1,1,0.6,1.9,1.4,2.6c0.8,0.8,2,1.4,3.5,2l14.6,5.2l1-2.7l0.6,0.2L357.7,269.6z"/>
				<path class="st1" d="M335.2,262.9l0.5,0.3l-1.3,2.5l19.5,10.2l1.3-2.5l0.5,0.3l-4,7.6l-0.5-0.3l1.3-2.5l-19.5-10.2l-2.2,4.2
					c-0.6,1.1-0.9,2-1,2.8c-0.1,0.8,0,1.5,0.4,2.1c0.3,0.6,0.8,1.1,1.4,1.6c0.6,0.5,1.4,0.9,2.3,1.4l-0.3,0.5l-6.2-3.2L335.2,262.9z
					"/>
				<path class="st1" d="M324.2,282.6l0.5,0.3l-2,2.8l18,12.7l1.8-2.5c0.5-0.7,0.8-1.4,0.9-2.1c0.1-0.6,0-1.2-0.3-1.8
					c-0.3-0.6-0.7-1.1-1.3-1.7c-0.6-0.5-1.3-1.1-2.1-1.7l0.4-0.5l5.7,4L335,307.7l-5.7-4l0.3-0.5c0.8,0.6,1.6,1,2.3,1.4
					c0.7,0.4,1.4,0.6,2,0.6c0.6,0.1,1.2,0,1.8-0.3c0.6-0.3,1.1-0.8,1.6-1.6l1.8-2.5l-18-12.7l-2,2.8l-0.5-0.3L324.2,282.6z"/>
				<path class="st1" d="M315.3,308.9c0.2-0.2,0.5-0.4,0.8-0.5s0.6-0.1,1,0c0.3,0.1,0.6,0.2,0.9,0.5c0.2,0.2,0.4,0.5,0.5,0.8
					c0.1,0.3,0.1,0.6,0,1s-0.2,0.6-0.5,0.9c-0.2,0.2-0.5,0.4-0.8,0.5c-0.3,0.1-0.6,0.1-1,0s-0.6-0.2-0.9-0.5s-0.4-0.5-0.5-0.8
					s-0.1-0.6,0-1C314.9,309.5,315.1,309.2,315.3,308.9z"/>
				<path class="st1" d="M291.8,317.2c1.6-1.3,3.4-2,5.3-2.2s3.7,0.2,5.5,1s3.4,2.2,4.9,4c1.4,1.8,2.4,3.7,2.8,5.6
					c0.4,2,0.3,3.8-0.2,5.6c-0.6,1.8-1.7,3.3-3.4,4.6c-0.8,0.6-1.7,1.1-2.6,1.4c-1,0.3-1.9,0.4-2.9,0.4l-0.2,2.3l-0.4,0.3l-4-5
					l0.5-0.4c0.8,0.9,1.7,1.5,2.8,1.8s2.1,0.3,3.2,0.1c1.1-0.2,2.1-0.7,2.9-1.4c1.1-0.8,1.7-1.8,2.1-2.9c0.3-1.1,0.4-2.2,0.2-3.4
					s-0.6-2.4-1.3-3.6s-1.4-2.4-2.3-3.5s-1.8-2.1-2.9-3c-1-0.9-2.1-1.6-3.2-2c-1.1-0.5-2.2-0.7-3.3-0.6s-2.2,0.5-3.3,1.4
					c-0.8,0.6-1.4,1.3-1.9,2.1c-0.5,0.8-0.8,1.5-0.9,2.3c-0.1,0.8-0.1,1.6,0.1,2.4c0.2,0.8,0.5,1.5,1,2.2l-0.5,0.4l-4-5l0.4-0.3
					l2.3,0.5c0.1-1,0.5-1.9,1-2.8C290.1,318.8,290.9,318,291.8,317.2z"/>
				<path class="st1" d="M274.6,328.8c1.4-0.8,2.7-1.2,4.1-1.3s2.7,0.1,4,0.7c1.3,0.5,2.5,1.3,3.6,2.3c1.1,1,2.1,2.3,2.9,3.7
					c0.8,1.4,1.4,2.9,1.7,4.4s0.4,2.9,0.2,4.3c-0.2,1.4-0.7,2.6-1.4,3.8c-0.8,1.1-1.8,2.1-3.1,2.8c-1.3,0.7-2.6,1.2-4,1.2
					c-1.4,0.1-2.7-0.1-4-0.7s-2.5-1.3-3.6-2.3c-1.1-1-2.1-2.2-2.9-3.7s-1.4-2.9-1.7-4.4s-0.4-2.9-0.2-4.3s0.7-2.6,1.4-3.8
					C272.2,330.6,273.3,329.6,274.6,328.8z M274.9,329.3c-1.2,0.7-1.9,1.5-2.4,2.5c-0.4,1-0.5,2-0.4,3.2c0.2,1.2,0.5,2.4,1,3.6
					s1.1,2.5,1.8,3.7c0.7,1.2,1.5,2.4,2.3,3.4c0.8,1.1,1.7,2,2.7,2.7c1,0.7,1.9,1.1,3,1.3c1,0.2,2.1-0.1,3.2-0.7
					c1.1-0.6,1.9-1.4,2.2-2.4c0.4-1,0.5-2,0.4-3.2c-0.1-1.2-0.5-2.4-1-3.7c-0.5-1.3-1.1-2.5-1.8-3.7c-0.7-1.2-1.5-2.4-2.3-3.5
					c-0.8-1.1-1.7-2-2.6-2.7c-0.9-0.7-1.9-1.2-3-1.3C277.2,328.4,276.1,328.6,274.9,329.3z"/>
				<path class="st1" d="M249.1,365.5l-0.2-0.6l2-0.8l-7.6-20.7l-2,0.8l-0.2-0.6l7.1-2.6l0.2,0.6l-2.3,0.9l7.8,21.2L249.1,365.5z
					 M254,338.6l16.2,19.1l-2.8,1L254,343l0.4,20.5l-0.6,0.2l-0.5-24.9L254,338.6z M269.9,357.8l-7.8-21.2l-2.2,0.8l-0.2-0.6
					l4.8-1.8l0.2,0.6l-2.1,0.8l7.6,20.7l2.2-0.8l0.2,0.6L269.9,357.8z"/>
				<path class="st1" d="M219.3,371.2l-0.1-0.6l2.1-0.4l-3.8-21.7l-2.1,0.4l-0.1-0.6l7.5-1.3l0.1,0.6l-2.5,0.4l3.9,22.3L219.3,371.2
					z M228.9,345.6l12.5,21.7l-2.9,0.5L228.1,350l-3.3,20.3l-0.6,0.1l4-24.6L228.9,345.6z M241.2,367.4l-3.9-22.3l-2.3,0.4l-0.1-0.6
					l5.1-0.9l0.1,0.6l-2.2,0.4l3.8,21.7l2.3-0.4l0.1,0.6L241.2,367.4z"/>
				<path class="st1" d="M192.7,371.7l0-0.6l2.7,0l7.9-23.2l0.7,0l8.4,23l2.4,0l0,0.6l-9,0.1l0-0.6l3.2-0.1l-6.5-18.9l-6.4,19.1
					l3.8-0.1l0,0.6L192.7,371.7z"/>
				<path class="st1" d="M176,369.9l-4.4-24l-2.4-0.4l0.1-0.6l8.9,1.4l-0.1,0.6l-3.1-0.5l3.1,19.6l9.4-17.6l-3.2-0.5l0.1-0.6l6.7,1
					l-0.1,0.6l-2.8-0.4L176.7,370L176,369.9z M184.3,354.6l-0.1,0.6l-9.9-1.5l0.1-0.6L184.3,354.6z"/>
				<path class="st1" d="M141.7,360.5l0.2-0.6l2.8,0.9l4.7-14.8c0.8-2.4,1.9-4.1,3.4-4.9s3.4-0.9,5.7-0.1c2.6,0.8,4.2,2,5.1,3.5
					c0.8,1.5,0.8,3.5,0,6.1l-4.7,14.8l2.6,0.8l-0.2,0.6l-8.4-2.7l0.2-0.6l3,0.9l4.6-14.5c0.3-1,0.5-1.9,0.6-2.8s0.1-1.7-0.1-2.4
					c-0.2-0.7-0.5-1.4-1.1-1.9c-0.6-0.6-1.4-1-2.4-1.3c-1.2-0.4-2.3-0.5-3.3-0.3c-1,0.2-1.8,0.7-2.6,1.5c-0.7,0.8-1.4,2-1.8,3.6
					l-4.7,14.8l2.7,0.9l-0.2,0.6L141.7,360.5z"/>
				<path class="st1" d="M147.6,337.8l-0.3,0.5l-2.5-1.2l-9.5,19.9l2.5,1.2l-0.3,0.5l-7.7-3.7l0.3-0.5l2.5,1.2l9.5-19.9l-4.3-2.1
					c-1.1-0.5-2-0.8-2.8-0.9c-0.8,0-1.5,0.1-2.1,0.4c-0.6,0.3-1.1,0.8-1.5,1.5c-0.5,0.7-0.9,1.4-1.3,2.3l-0.6-0.3l3-6.3L147.6,337.8
					z"/>
				<path class="st1" d="M127.5,327.5l-0.3,0.5l-2.9-1.9l-12,18.5l2.6,1.7c0.8,0.5,1.5,0.8,2.1,0.8s1.2-0.1,1.8-0.4s1.1-0.7,1.6-1.3
					s1-1.3,1.6-2.1l0.5,0.3l-3.8,5.8l-15.9-10.4l3.8-5.8l0.5,0.3c-0.5,0.8-1,1.6-1.3,2.3c-0.3,0.7-0.5,1.4-0.6,2
					c0,0.6,0.1,1.2,0.4,1.8c0.3,0.6,0.8,1.1,1.6,1.6l2.6,1.7l12-18.5l-2.9-1.9l0.3-0.5L127.5,327.5z"/>
				<path class="st1" d="M100.8,319.6c0.3,0.2,0.4,0.5,0.5,0.8c0.1,0.3,0.1,0.6,0.1,1c-0.1,0.3-0.2,0.6-0.4,0.9
					c-0.2,0.3-0.5,0.4-0.8,0.5c-0.3,0.1-0.6,0.1-1,0.1c-0.3-0.1-0.6-0.2-0.9-0.4c-0.3-0.2-0.4-0.5-0.5-0.8s-0.1-0.6-0.1-1
					c0.1-0.3,0.2-0.6,0.4-0.9c0.2-0.3,0.5-0.4,0.8-0.5c0.3-0.1,0.6-0.1,1-0.1S100.5,319.4,100.8,319.6z"/>
				<path class="st1" d="M91.6,296.4c1.4,1.6,2.2,3.3,2.4,5.2c0.2,1.9,0,3.7-0.8,5.6c-0.8,1.8-2.1,3.5-3.8,5c-1.8,1.5-3.6,2.5-5.5,3
					s-3.8,0.5-5.6,0c-1.8-0.5-3.4-1.6-4.8-3.2c-0.7-0.8-1.2-1.6-1.5-2.6c-0.3-0.9-0.5-1.9-0.5-2.9l-2.4-0.1l-0.4-0.4l4.8-4.1
					l0.4,0.5c-0.9,0.8-1.5,1.8-1.7,2.8s-0.3,2.1,0,3.2s0.8,2,1.5,2.9c0.9,1,1.9,1.7,2.9,2c1.1,0.3,2.2,0.3,3.4,0.1
					c1.2-0.3,2.4-0.7,3.5-1.4s2.3-1.5,3.4-2.4c1.1-0.9,2-1.9,2.9-3c0.8-1.1,1.5-2.2,1.9-3.3c0.4-1.1,0.6-2.2,0.5-3.4
					c-0.1-1.1-0.6-2.2-1.5-3.2c-0.7-0.8-1.4-1.4-2.2-1.8s-1.6-0.7-2.4-0.8s-1.6-0.1-2.4,0.1c-0.8,0.2-1.5,0.6-2.1,1.1l-0.4-0.5
					l4.8-4.1l0.4,0.4l-0.4,2.3c1,0.1,1.9,0.4,2.9,0.9C90,294.8,90.9,295.5,91.6,296.4z"/>
				<path class="st1" d="M79.5,279.6c0.8,1.3,1.3,2.7,1.4,4.1s0,2.7-0.5,4c-0.5,1.3-1.2,2.5-2.2,3.7c-1,1.1-2.2,2.1-3.6,3
					s-2.8,1.5-4.3,1.9s-2.9,0.5-4.3,0.3c-1.4-0.2-2.7-0.6-3.8-1.3c-1.2-0.7-2.1-1.7-2.9-3c-0.8-1.3-1.2-2.6-1.4-3.9s0.1-2.7,0.5-4
					c0.5-1.3,1.2-2.6,2.2-3.7c1-1.2,2.2-2.2,3.6-3c1.4-0.9,2.8-1.5,4.3-1.9s2.9-0.5,4.3-0.4c1.4,0.1,2.7,0.6,3.8,1.3
					S78.6,278.3,79.5,279.6z M79,279.9c-0.7-1.1-1.6-1.9-2.6-2.3c-1-0.4-2.1-0.5-3.2-0.3s-2.4,0.6-3.6,1.2c-1.2,0.6-2.5,1.2-3.6,2
					c-1.2,0.7-2.3,1.6-3.4,2.4c-1,0.9-1.9,1.8-2.6,2.8c-0.7,1-1.1,2-1.2,3c-0.1,1,0.2,2.1,0.8,3.2c0.7,1.1,1.5,1.8,2.5,2.2
					c1,0.4,2.1,0.5,3.2,0.3c1.2-0.2,2.4-0.5,3.6-1.1c1.3-0.6,2.5-1.2,3.7-1.9c1.2-0.7,2.3-1.5,3.4-2.4c1.1-0.9,1.9-1.8,2.6-2.7
					c0.7-1,1.1-2,1.2-3C80,282.2,79.7,281.1,79,279.9z"/>
				<path class="st1" d="M41.9,255.5l0.6-0.2l0.8,2l20.4-8.4l-0.8-2l0.6-0.2l2.9,7l-0.6,0.2l-0.9-2.3l-20.9,8.6L41.9,255.5z
					 M68.9,259.3l-18.5,16.9l-1.1-2.8l15.2-14L44,260.6l-0.2-0.6l24.9-1.4L68.9,259.3z M50.3,276l20.9-8.6l-0.9-2.1l0.6-0.2l2,4.7
					l-0.6,0.2l-0.8-2l-20.4,8.4l0.9,2.2l-0.6,0.2L50.3,276z"/>
				<path class="st1" d="M35.1,225.9l0.6-0.1l0.5,2.1l21.6-4.6l-0.5-2.1l0.6-0.1l1.6,7.4l-0.6,0.1l-0.5-2.4l-22.2,4.7L35.1,225.9z
					 M61,234.5l-21.3,13.3l-0.6-2.9l17.5-11l-20.4-2.5l-0.1-0.6l24.7,3.1L61,234.5z M39.7,247.6l22.2-4.7l-0.5-2.2l0.6-0.1l1.1,5
					l-0.6,0.1l-0.5-2.2l-21.6,4.6l0.5,2.3l-0.6,0.1L39.7,247.6z"/>
				<path class="st1" d="M33.8,198.9l0.6,0l0.1,2.7l23.4,7.3l0,0.7l-22.8,8.9l0.1,2.4l-0.6,0l-0.4-9l0.6,0l0.1,3.2l18.8-6.9l-19.3-6
					l0.2,3.8l-0.6,0L33.8,198.9z"/>
				<path class="st1" d="M34.8,182.6l23.9-5.2l0.3-2.4l0.6,0.1l-1,8.9l-0.6-0.1l0.4-3.2l-19.4,3.8l18,8.7l0.4-3.3l0.6,0.1l-0.8,6.8
					l-0.6-0.1l0.3-2.8l-22-10.8L34.8,182.6z M50.5,190.3l-0.6-0.1l1.2-10l0.6,0.1L50.5,190.3z"/>
				<path class="st1" d="M43,147.9l0.6,0.2l-0.8,2.8l14.9,4.2c2.5,0.7,4.1,1.8,5,3.2c0.9,1.4,1,3.3,0.4,5.7
					c-0.7,2.6-1.8,4.3-3.3,5.2c-1.5,0.9-3.5,1-6.1,0.2l-14.9-4.2l-0.7,2.7l-0.6-0.2l2.4-8.5l0.6,0.2l-0.8,3l14.6,4.1
					c1,0.3,1.9,0.5,2.8,0.5c0.9,0.1,1.7,0,2.4-0.2s1.4-0.6,1.9-1.2s1-1.4,1.3-2.5c0.3-1.2,0.4-2.3,0.2-3.3c-0.2-1-0.8-1.8-1.6-2.5
					c-0.8-0.7-2.1-1.3-3.6-1.7l-14.9-4.2l-0.8,2.7l-0.6-0.2L43,147.9z"/>
				<path class="st1" d="M65.9,153l-0.6-0.2l1.1-2.6l-20.2-8.8l-1.1,2.6l-0.6-0.2l3.4-7.8l0.6,0.2l-1.1,2.5l20.2,8.8l1.9-4.4
					c0.5-1.1,0.7-2.1,0.8-2.9c0-0.8-0.1-1.5-0.5-2c-0.4-0.6-0.9-1.1-1.5-1.5c-0.7-0.4-1.5-0.8-2.4-1.2l0.2-0.6l6.4,2.8L65.9,153z"/>
				<path class="st1" d="M75.5,132.5l-0.5-0.3l1.8-2.9l-18.9-11.4l-1.6,2.7c-0.5,0.8-0.7,1.5-0.8,2.1c0,0.6,0.1,1.2,0.4,1.8
					c0.3,0.5,0.8,1.1,1.4,1.6c0.6,0.5,1.3,1,2.2,1.5l-0.3,0.5l-6-3.6l9.8-16.3l6,3.6l-0.3,0.5c-0.8-0.5-1.6-0.9-2.4-1.2
					c-0.7-0.3-1.4-0.5-2-0.5c-0.6,0-1.2,0.1-1.8,0.5c-0.5,0.3-1,0.9-1.5,1.7l-1.6,2.7l18.9,11.4l1.8-2.9l0.5,0.3L75.5,132.5z"/>
				<path class="st1" d="M82.4,105.6c-0.2,0.3-0.5,0.5-0.8,0.6s-0.6,0.1-0.9,0.1s-0.6-0.2-0.9-0.4c-0.3-0.2-0.5-0.5-0.6-0.8
					c-0.1-0.3-0.1-0.6-0.1-1c0-0.3,0.2-0.6,0.4-0.9c0.2-0.3,0.5-0.5,0.8-0.6c0.3-0.1,0.6-0.1,1-0.1s0.6,0.2,0.9,0.4
					c0.3,0.2,0.5,0.5,0.6,0.8s0.1,0.6,0.1,0.9C82.8,105,82.6,105.3,82.4,105.6z"/>
			</g>
		</g>
	</g>
</g>
</svg>
