<?xml version="1.0" encoding="UTF-8"?>
<svg id="Layer_2" data-name="Layer 2" xmlns="http://www.w3.org/2000/svg" viewBox="0 0 405.54 405.54">
  <defs>
    <style>
      .cls-1 {
        fill: #231f20;
        font-family: MyriadPro-Regular, 'Myriad Pro';
        font-size: 44px;
      }

      .cls-2 {
        fill: none;
        stroke: #231f20;
        stroke-miterlimit: 10;
        stroke-width: 3px;
      }
    </style>
  </defs>
  <g id="Layer_1-2" data-name="Layer 1">
    <text class="cls-1" transform="translate(134 69.85) rotate(-23.28)"><tspan x="0" y="0">F</tspan></text>
    <text class="cls-1" transform="translate(152.53 61.47) rotate(-14.08)"><tspan x="0" y="0">U</tspan></text>
    <text class="cls-1" transform="translate(179.11 55.03) rotate(-5.05)"><tspan x="0" y="0">L</tspan></text>
    <text class="cls-1" transform="translate(198.85 53.23) rotate(2.44)"><tspan x="0" y="0">L</tspan></text>
    <text class="cls-1" transform="translate(218.87 54.32) rotate(7.91)"><tspan x="0" y="0"> </tspan></text>
    <text class="cls-1" transform="translate(227.48 55.17) rotate(13.61)"><tspan x="0" y="0">S</tspan></text>
    <text class="cls-1" transform="translate(247.59 59.96) rotate(21.63)"><tspan x="0" y="0">T</tspan></text>
    <text class="cls-1" transform="translate(264.15 66.03) rotate(29.38)"><tspan x="0" y="0">A</tspan></text>
    <text class="cls-1" transform="translate(286.09 78.29) rotate(38.72)"><tspan x="0" y="0">C</tspan></text>
    <text class="cls-1" transform="translate(305.14 93.52) rotate(47.69)"><tspan x="0" y="0">K</tspan></text>
    <text class="cls-1" transform="translate(320.42 110.82) rotate(53.73)"><tspan x="0" y="0"> </tspan></text>
    <text class="cls-1" transform="translate(325.7 117.89) rotate(57.7)"><tspan x="0" y="0">•</tspan></text>
    <text class="cls-1" transform="translate(332.03 127.97) rotate(61.68)"><tspan x="0" y="0"> </tspan></text>
    <text class="cls-1" transform="translate(336.4 135.39) rotate(67.33)"><tspan x="0" y="0">F</tspan></text>
    <text class="cls-1" transform="translate(344.58 154.01) rotate(76.52)"><tspan x="0" y="0">U</tspan></text>
    <text class="cls-1" transform="translate(350.74 180.64) rotate(85.54)"><tspan x="0" y="0">L</tspan></text>
    <text class="cls-1" transform="translate(352.34 200.41) rotate(93.03)"><tspan x="0" y="0">L</tspan></text>
    <text class="cls-1" transform="translate(351.05 220.42) rotate(98.51)"><tspan x="0" y="0"> </tspan></text>
    <text class="cls-1" transform="translate(350.11 228.99) rotate(104.21)"><tspan x="0" y="0">S</tspan></text>
    <text class="cls-1" transform="translate(345.11 249.09) rotate(112.24)"><tspan x="0" y="0">T</tspan></text>
    <text class="cls-1" transform="translate(338.85 265.59) rotate(119.99)"><tspan x="0" y="0">A</tspan></text>
    <text class="cls-1" transform="translate(326.37 287.39) rotate(129.32)"><tspan x="0" y="0">C</tspan></text>
    <text class="cls-1" transform="translate(310.93 306.28) rotate(138.29)"><tspan x="0" y="0">K</tspan></text>
    <text class="cls-1" transform="translate(293.48 321.38) rotate(144.34)"><tspan x="0" y="0"> </tspan></text>
    <text class="cls-1" transform="translate(286.37 326.57) rotate(148.3)"><tspan x="0" y="0">•</tspan></text>
    <text class="cls-1" transform="translate(276.22 332.8) rotate(152.28)"><tspan x="0" y="0"> </tspan></text>
    <text class="cls-1" transform="translate(268.74 337.1) rotate(157.93)"><tspan x="0" y="0">F</tspan></text>
    <text class="cls-1" transform="translate(250.04 345.09) rotate(167.12)"><tspan x="0" y="0">U</tspan></text>
    <text class="cls-1" transform="translate(223.34 350.96) rotate(176.14)"><tspan x="0" y="0">L</tspan></text>
    <text class="cls-1" transform="translate(203.58 352.36) rotate(-176.38)"><tspan x="0" y="0">L</tspan></text>
    <text class="cls-1" transform="translate(183.55 350.86) rotate(-170.88)"><tspan x="0" y="0"> </tspan></text>
    <text class="cls-1" transform="translate(175.01 349.83) rotate(-165.19)"><tspan x="0" y="0">S</tspan></text>
    <text class="cls-1" transform="translate(154.96 344.61) rotate(-157.16)"><tspan x="0" y="0">T</tspan></text>
    <text class="cls-1" transform="translate(138.54 338.19) rotate(-149.42)"><tspan x="0" y="0">A</tspan></text>
    <text class="cls-1" transform="translate(116.87 325.49) rotate(-140.09)"><tspan x="0" y="0">C</tspan></text>
    <text class="cls-1" transform="translate(98.13 309.84) rotate(-131.11)"><tspan x="0" y="0">K</tspan></text>
    <text class="cls-1" transform="translate(83.23 292.24) rotate(-125.07)"><tspan x="0" y="0"> </tspan></text>
    <text class="cls-1" transform="translate(78.09 285.06) rotate(-121.1)"><tspan x="0" y="0">•</tspan></text>
    <text class="cls-1" transform="translate(71.98 274.86) rotate(-117.12)"><tspan x="0" y="0"> </tspan></text>
    <text class="cls-1" transform="translate(67.75 267.33) rotate(-111.47)"><tspan x="0" y="0">F</tspan></text>
    <text class="cls-1" transform="translate(59.96 248.54) rotate(-102.27)"><tspan x="0" y="0">U</tspan></text>
    <text class="cls-1" transform="translate(54.37 221.8) rotate(-93.28)"><tspan x="0" y="0">L</tspan></text>
    <text class="cls-1" transform="translate(53.18 202) rotate(-85.78)"><tspan x="0" y="0">L</tspan></text>
    <text class="cls-1" transform="translate(54.89 182.01) rotate(-80.29)"><tspan x="0" y="0"> </tspan></text>
    <text class="cls-1" transform="translate(56 173.48) rotate(-74.59)"><tspan x="0" y="0">S</tspan></text>
    <text class="cls-1" transform="translate(61.43 153.48) rotate(-66.56)"><tspan x="0" y="0">T</tspan></text>
    <text class="cls-1" transform="translate(68.02 137.14) rotate(-58.82)"><tspan x="0" y="0">A</tspan></text>
    <text class="cls-1" transform="translate(80.96 115.59) rotate(-49.49)"><tspan x="0" y="0">C</tspan></text>
    <text class="cls-1" transform="translate(96.8 97.01) rotate(-40.52)"><tspan x="0" y="0">K</tspan></text>
    <text class="cls-1" transform="translate(114.56 82.29) rotate(-34.47)"><tspan x="0" y="0"> </tspan></text>
    <text class="cls-1" transform="translate(121.78 77.24) rotate(-30.51)"><tspan x="0" y="0">•</tspan></text>
    <circle class="cls-2" cx="202.77" cy="202.77" r="121.05"/>
    <circle class="cls-2" cx="202.77" cy="202.77" r="201.27"/>
  </g>
</svg>