<?xml version="1.0" encoding="UTF-8"?>
<svg id="Layer_2" data-name="Layer 2" xmlns="http://www.w3.org/2000/svg" viewBox="0 0 405.54 405.54">
  <defs>
    <style>
      .cls-1 {
        fill: #231f20;
        font-family: MyriadPro-Regular, 'Myriad Pro';
        font-size: 44px;
      }

      .cls-2 {
        fill: none;
        stroke: #231f20;
        stroke-miterlimit: 10;
        stroke-width: 3px;
      }
    </style>
  </defs>
  <g id="Layer_1-2" data-name="Layer 1">
    <text class="cls-1" transform="translate(133.76 69.64) rotate(-21.98)"><tspan x="0" y="0">G</tspan></text>
    <text class="cls-1" transform="translate(159.44 59.82) rotate(-14.81)"><tspan x="0" y="0">I</tspan></text>
    <text class="cls-1" transform="translate(168.8 57) rotate(-8.86)"><tspan x="0" y="0">T</tspan></text>
    <text class="cls-1" transform="translate(189.18 53.3) rotate(.93)"><tspan x="0" y="0">H</tspan></text>
    <text class="cls-1" transform="translate(216.69 53.49) rotate(10.71)"><tspan x="0" y="0">U</tspan></text>
    <text class="cls-1" transform="translate(243.46 58.65) rotate(20.34)"><tspan x="0" y="0">B</tspan></text>
    <text class="cls-1" transform="translate(264.97 66.99) rotate(26.45)"><tspan x="0" y="0"> </tspan></text>
    <text class="cls-1" transform="translate(272.84 70.35) rotate(32.83)"><tspan x="0" y="0">C</tspan></text>
    <text class="cls-1" transform="translate(293.53 83.53) rotate(42.45)"><tspan x="0" y="0">A</tspan></text>
    <text class="cls-1" transform="translate(312.69 100.3) rotate(53.72)"><tspan x="0" y="0">M</tspan></text>
    <text class="cls-1" transform="translate(332.47 127.97) rotate(64.47)"><tspan x="0" y="0">P</tspan></text>
    <text class="cls-1" transform="translate(342.34 147.93) rotate(74.02)"><tspan x="0" y="0">U</tspan></text>
    <text class="cls-1" transform="translate(349.69 174.25) rotate(83.24)"><tspan x="0" y="0">S</tspan></text>
    <text class="cls-1" transform="translate(351.88 195.07) rotate(88.85)"><tspan x="0" y="0"> </tspan></text>
    <text class="cls-1" transform="translate(352.39 203.73) rotate(94.45)"><tspan x="0" y="0">E</tspan></text>
    <text class="cls-1" transform="translate(351.01 224.26) rotate(103.01)"><tspan x="0" y="0">X</tspan></text>
    <text class="cls-1" transform="translate(345.62 247.67) rotate(111.95)"><tspan x="0" y="0">P</tspan></text>
    <text class="cls-1" transform="translate(337.26 268.43) rotate(120.22)"><tspan x="0" y="0">E</tspan></text>
    <text class="cls-1" transform="translate(327.01 286.32) rotate(128.49)"><tspan x="0" y="0">R</tspan></text>
    <text class="cls-1" transform="translate(312.66 304.33) rotate(136.92)"><tspan x="0" y="0">T</tspan></text>
    <text class="cls-1" transform="translate(297.04 318.56) rotate(142.6)"><tspan x="0" y="0"> </tspan></text>
    <text class="cls-1" transform="translate(290.08 323.97) rotate(146.56)"><tspan x="0" y="0">•</tspan></text>
    <text class="cls-1" transform="translate(280.13 330.5) rotate(150.53)"><tspan x="0" y="0"> </tspan></text>
    <text class="cls-1" transform="translate(273.04 335.23) rotate(157.47)"><tspan x="0" y="0">G</tspan></text>
    <text class="cls-1" transform="translate(247.45 345.3) rotate(164.65)"><tspan x="0" y="0">I</tspan></text>
    <text class="cls-1" transform="translate(238.1 348.21) rotate(170.6)"><tspan x="0" y="0">T</tspan></text>
    <text class="cls-1" transform="translate(217.62 351.77) rotate(179.07)"><tspan x="0" y="0">H</tspan></text>
    <text class="cls-1" transform="translate(190.25 352.17) rotate(-169.83)"><tspan x="0" y="0">U</tspan></text>
    <text class="cls-1" transform="translate(163.43 347.26) rotate(-160.2)"><tspan x="0" y="0">B</tspan></text>
    <text class="cls-1" transform="translate(141.86 339.13) rotate(-154.1)"><tspan x="0" y="0"> </tspan></text>
    <text class="cls-1" transform="translate(133.95 335.84) rotate(-147.71)"><tspan x="0" y="0">C</tspan></text>
    <text class="cls-1" transform="translate(113.15 322.87) rotate(-138.1)"><tspan x="0" y="0">A</tspan></text>
    <text class="cls-1" transform="translate(93.83 306.29) rotate(-126.82)"><tspan x="0" y="0">M</tspan></text>
    <text class="cls-1" transform="translate(73.77 278.77) rotate(-116.07)"><tspan x="0" y="0">P</tspan></text>
    <text class="cls-1" transform="translate(63.72 258.93) rotate(-106.52)"><tspan x="0" y="0">U</tspan></text>
    <text class="cls-1" transform="translate(56.13 232.68) rotate(-97.3)"><tspan x="0" y="0">S</tspan></text>
    <text class="cls-1" transform="translate(53.73 211.85) rotate(-91.67)"><tspan x="0" y="0"> </tspan></text>
    <text class="cls-1" transform="translate(53.14 203.24) rotate(-86.09)"><tspan x="0" y="0">E</tspan></text>
    <text class="cls-1" transform="translate(54.34 182.66) rotate(-77.53)"><tspan x="0" y="0">X</tspan></text>
    <text class="cls-1" transform="translate(59.51 159.21) rotate(-68.59)"><tspan x="0" y="0">P</tspan></text>
    <text class="cls-1" transform="translate(67.66 138.38) rotate(-60.32)"><tspan x="0" y="0">E</tspan></text>
    <text class="cls-1" transform="translate(77.75 120.38) rotate(-52.04)"><tspan x="0" y="0">R</tspan></text>
    <text class="cls-1" transform="translate(91.93 102.24) rotate(-43.61)"><tspan x="0" y="0">T</tspan></text>
    <text class="cls-1" transform="translate(107.42 87.87) rotate(-37.94)"><tspan x="0" y="0"> </tspan></text>
    <text class="cls-1" transform="translate(114.32 82.39) rotate(-33.98)"><tspan x="0" y="0">•</tspan></text>
    <text class="cls-1" transform="translate(124.2 75.78) rotate(-30.01)"><tspan x="0" y="0"> </tspan></text>
    <circle class="cls-2" cx="202.77" cy="202.77" r="121.05"/>
    <circle class="cls-2" cx="202.77" cy="202.77" r="201.27"/>
  </g>
</svg>