<svg xmlns="http://www.w3.org/2000/svg" viewBox="0 0 405.54 405.54"><defs><style>.cls-1{font-size:39.5px;fill:#8c9a9e;font-family:MyriadPro-Regular, Myriad Pro;}.cls-2{fill:none;stroke:#8c9a9e;stroke-miterlimit:10;stroke-width:3px;}</style></defs><title>Asset 5</title><g id="Layer_2" data-name="Layer 2"><g id="Layer_1-2" data-name="Layer 1"><text class="cls-1" transform="translate(134.42 69.98) rotate(-25.46)">I</text><text class="cls-1" transform="translate(142.07 65.77) rotate(-18.92)">N</text><text class="cls-1" transform="matrix(0.98, -0.18, 0.18, 0.98, 165.83, 57.81)">S</text><text class="cls-1" transform="translate(184.19 54.35) rotate(-3.32)">T</text><text class="cls-1" transform="matrix(1, 0.07, -0.07, 1, 202.94, 53.16)">R</text><text class="cls-1" transform="translate(223.24 54.37) rotate(12.7)">U</text><text class="cls-1" transform="translate(247.16 59.36) rotate(23.3)">M</text><text class="cls-1" transform="matrix(0.84, 0.54, -0.54, 0.84, 275.2, 71.89)">E</text><text class="cls-1" transform="translate(290.95 81.66) rotate(41.06)">N</text><text class="cls-1" transform="translate(309.74 98.24) rotate(49.4)">T</text><text class="cls-1" transform="matrix(0.58, 0.81, -0.81, 0.58, 321.96, 112.85)"> </text><text class="cls-1" transform="translate(326.63 119.31) rotate(58.11)">•</text><text class="cls-1" transform="translate(332.27 128.42) rotate(61.69)"> </text><text class="cls-1" transform="translate(336.08 135.45) rotate(64.98)">I</text><text class="cls-1" transform="matrix(0.32, 0.95, -0.95, 0.32, 340.24, 143.15)">N</text><text class="cls-1" transform="matrix(0.17, 0.98, -0.98, 0.17, 348.01, 166.96)">S</text><text class="cls-1" transform="matrix(0.05, 1, -1, 0.05, 351.32, 185.35)">T</text><text class="cls-1" transform="translate(352.38 204.13) rotate(94.53)">R</text><text class="cls-1" transform="translate(351.01 224.4) rotate(103.14)">U</text><text class="cls-1" transform="translate(345.82 248.31) rotate(113.76)">M</text><text class="cls-1" transform="translate(333.08 276.21) rotate(123.18)">E</text><text class="cls-1" transform="matrix(-0.66, 0.75, -0.75, -0.66, 323.18, 291.9)">N</text><text class="cls-1" transform="matrix(-0.76, 0.64, -0.64, -0.76, 306.45, 310.56)">T</text><text class="cls-1" transform="translate(291.77 322.65) rotate(144.97)"> </text><text class="cls-1" transform="matrix(-0.85, 0.52, -0.52, -0.85, 285.27, 327.28)">•</text><text class="cls-1" transform="translate(276.09 332.85) rotate(152.15)"> </text><text class="cls-1" transform="translate(269.05 336.6) rotate(155.43)">I</text><text class="cls-1" transform="matrix(-0.95, 0.31, -0.31, -0.95, 261.31, 340.71)">N</text><text class="cls-1" transform="translate(237.43 348.29) rotate(170.4)">S</text><text class="cls-1" transform="translate(219.03 351.45) rotate(177.56)">T</text><text class="cls-1" transform="translate(200.25 352.36) rotate(-175.03)">R</text><text class="cls-1" transform="translate(179.96 350.83) rotate(-166.4)">U</text><text class="cls-1" transform="translate(156.12 345.46) rotate(-155.79)">M</text><text class="cls-1" transform="matrix(-0.83, -0.55, 0.55, -0.83, 128.3, 332.5)">E</text><text class="cls-1" transform="translate(112.71 322.49) rotate(-138.05)">N</text><text class="cls-1" transform="matrix(-0.64, -0.77, 0.77, -0.64, 94.18, 305.62)">T</text><text class="cls-1" transform="translate(82.19 290.82) rotate(-124.58)"> </text><text class="cls-1" transform="translate(77.63 284.3) rotate(-121)">•</text><text class="cls-1" transform="translate(72.12 275.08) rotate(-117.4)"> </text><text class="cls-1" transform="translate(68.42 268) rotate(-114.12)">I</text><text class="cls-1" transform="translate(64.37 260.22) rotate(-107.55)">N</text><text class="cls-1" transform="translate(56.98 236.3) rotate(-99.15)">S</text><text class="cls-1" transform="translate(53.96 217.87) rotate(-92)">T</text><text class="cls-1" transform="translate(53.2 199.06) rotate(-84.57)">R</text><text class="cls-1" transform="matrix(0.24, -0.97, 0.97, 0.24, 54.89, 178.82)">U</text><text class="cls-1" transform="translate(60.44 155.01) rotate(-65.34)">M</text><text class="cls-1" transform="matrix(0.56, -0.83, 0.83, 0.56, 73.63, 127.28)">E</text><text class="cls-1" transform="translate(83.76 111.77) rotate(-47.6)">N</text><text class="cls-1" transform="matrix(0.77, -0.63, 0.63, 0.77, 100.78, 93.38)">T</text><text class="cls-1" transform="translate(115.68 81.49) rotate(-34.13)"> </text><text class="cls-1" transform="translate(122.23 76.98) rotate(-30.55)">•</text><text class="cls-1" transform="matrix(0.89, -0.45, 0.45, 0.89, 131.47, 71.56)"> </text><circle class="cls-2" cx="202.77" cy="202.77" r="121.05"/><circle class="cls-2" cx="202.77" cy="202.77" r="201.27"/></g></g></svg>