<?xml version="1.0" encoding="utf-8"?>
<!-- Generator: Adobe Illustrator 24.0.2, SVG Export Plug-In . SVG Version: 6.00 Build 0)  -->
<svg version="1.1" id="Layer_1" xmlns="http://www.w3.org/2000/svg" xmlns:xlink="http://www.w3.org/1999/xlink" x="0px" y="0px"
	 viewBox="0 0 405.5 405.5" style="enable-background:new 0 0 405.5 405.5;" xml:space="preserve">
<style type="text/css">
	.st0{fill:none;stroke:#32302A;stroke-width:3;stroke-miterlimit:10;}
	.st1{fill:#32302A;}
</style>
<title>Asset 5</title>
<g id="Layer_2_1_">
	<g id="Layer_1-2">
		<circle class="st0" cx="202.8" cy="202.8" r="121.1"/>
		<circle class="st0" cx="202.8" cy="202.8" r="201.3"/>
		<g>
			<g>
				<path class="st1" d="M116.1,58.1l0.3,0.5l-2.4,1.7l8.7,12.8c1.4,2.1,2,4,1.8,5.7c-0.2,1.7-1.4,3.2-3.4,4.6
					c-2.2,1.5-4.2,2.1-5.9,1.8c-1.7-0.3-3.3-1.5-4.8-3.7l-8.7-12.8l-2.3,1.6l-0.3-0.5l7.3-5l0.3,0.5l-2.6,1.7l8.6,12.6
					c0.6,0.8,1.2,1.6,1.8,2.2c0.6,0.6,1.3,1.1,2,1.4s1.4,0.4,2.2,0.3c0.8-0.1,1.6-0.5,2.6-1.1c1.1-0.7,1.8-1.5,2.3-2.4
					c0.5-0.9,0.6-1.9,0.4-3c-0.2-1.1-0.7-2.3-1.7-3.6l-8.7-12.8l-2.4,1.6l-0.3-0.5L116.1,58.1z"/>
				<path class="st1" d="M140.6,72c-1.9,0.9-3.8,1.3-5.6,1s-3.6-1-5.2-2.2c-1.6-1.2-2.9-2.9-3.9-5c-1-2.1-1.5-4.1-1.5-6.1
					c0-2,0.5-3.8,1.5-5.4c1-1.6,2.4-2.9,4.3-3.8c0.9-0.4,1.9-0.7,2.9-0.8c1-0.1,2,0,2.9,0.3l0.7-2.3l0.5-0.2l2.8,5.7l-0.6,0.3
					c-0.6-1.1-1.3-1.9-2.3-2.4c-1-0.5-2-0.8-3.1-0.8c-1.1,0-2.2,0.2-3.2,0.7c-1.2,0.6-2.1,1.4-2.7,2.3c-0.6,1-0.9,2.1-0.9,3.3
					c0,1.2,0.1,2.5,0.5,3.8c0.4,1.3,0.8,2.6,1.4,3.9c0.6,1.3,1.3,2.4,2.1,3.5c0.8,1.1,1.7,2,2.7,2.7c1,0.7,2,1.1,3.1,1.3
					c1.1,0.2,2.3,0,3.5-0.6c0.9-0.4,1.7-1,2.3-1.6c0.6-0.6,1.1-1.3,1.4-2.1c0.3-0.8,0.5-1.5,0.5-2.3c0-0.8-0.2-1.6-0.5-2.3l0.6-0.3
					l2.8,5.7l-0.5,0.2l-2.1-1c-0.4,0.9-0.9,1.8-1.6,2.5S141.6,71.5,140.6,72z"/>
				<path class="st1" d="M157.9,40.3l2,6l-0.6,0.2c-0.3-1.1-0.8-1.9-1.4-2.7c-0.6-0.7-1.3-1.2-2.1-1.5s-1.8-0.2-3,0.2l-4.7,1.5
					l6.8,21l2.9-1l0.2,0.6l-8.4,2.7l-0.2-0.6l2.7-0.9l-6.8-21l-2.7,0.9l-0.2-0.6L157.9,40.3z M157.5,56.2c-0.2-0.7-0.5-1.2-0.9-1.5
					s-0.9-0.5-1.5-0.5c-0.6,0-1.3,0.1-2.2,0.4l-1.9,0.6l-0.2-0.6l1.9-0.6c0.9-0.3,1.5-0.6,2-0.9c0.5-0.3,0.8-0.7,0.9-1.2
					s0.1-1-0.1-1.7l0.6-0.2l2,6L157.5,56.2z"/>
				<path class="st1" d="M174.2,60.5l-0.1-0.6l3.4-0.5l-3.5-21.8l-3.4,0.5l-0.1-0.6l9.9-1.6l0.1,0.6l-3.7,0.6l3.5,21.8l3.7-0.6
					l0.1,0.6L174.2,60.5z"/>
				<path class="st1" d="M194.1,58.5c-1.3,0.1-2.5-0.1-3.5-0.4c-1-0.4-1.8-0.9-2.5-1.5l-1.3,2.3l-0.5,0l-0.4-6.4l0.6,0
					c0.2,0.8,0.5,1.6,0.9,2.3c0.4,0.7,0.9,1.3,1.5,1.8c0.6,0.5,1.3,0.9,2.1,1.1c0.8,0.2,1.7,0.3,2.8,0.3c1.1-0.1,2-0.3,2.8-0.7
					c0.8-0.4,1.4-1,1.7-1.7c0.4-0.7,0.6-1.6,0.5-2.6c-0.1-0.9-0.3-1.7-0.8-2.3c-0.5-0.6-1.1-1.1-1.9-1.5c-0.8-0.4-1.6-0.8-2.5-1.1
					c-0.9-0.3-1.8-0.7-2.7-1.1c-0.9-0.4-1.7-0.8-2.5-1.3s-1.4-1.2-1.9-1.9c-0.5-0.8-0.8-1.7-0.9-2.9c-0.1-1.1,0.2-2.2,0.7-3
					c0.5-0.9,1.3-1.6,2.2-2.2c0.9-0.5,2-0.8,3.2-0.9c1-0.1,2,0,2.8,0.3c0.9,0.3,1.6,0.7,2.3,1.3l1.3-2.1l0.5,0l0.4,6.4l-0.6,0
					c-0.3-1.3-0.7-2.3-1.4-3.1s-1.4-1.4-2.2-1.7c-0.9-0.4-1.8-0.5-2.9-0.4c-1.5,0.1-2.6,0.5-3.3,1.3s-1,1.7-1,2.8
					c0.1,0.8,0.3,1.5,0.8,2c0.5,0.5,1.1,1,1.8,1.4c0.7,0.4,1.6,0.7,2.5,1.1c0.9,0.3,1.8,0.7,2.7,1.1c0.9,0.4,1.7,0.9,2.5,1.4
					c0.8,0.5,1.4,1.2,1.9,2.1s0.8,1.8,0.8,3.1c0.1,1.3-0.1,2.5-0.6,3.6c-0.5,1-1.3,1.9-2.3,2.5C196.8,58.1,195.6,58.4,194.1,58.5z"
					/>
				<path class="st1" d="M224.7,35.7l0,0.6l-2.9-0.2l-1.1,15.5c-0.2,2.5-0.9,4.4-2.1,5.6c-1.2,1.2-3.1,1.7-5.5,1.5
					c-2.7-0.2-4.6-0.9-5.7-2.2s-1.6-3.2-1.5-5.9l1.1-15.5l-2.8-0.2l0-0.6l8.8,0.6l0,0.6l-3.1-0.2l-1.1,15.2c-0.1,1-0.1,2,0,2.9
					c0.1,0.9,0.3,1.7,0.6,2.3c0.3,0.7,0.9,1.2,1.5,1.6c0.7,0.4,1.6,0.7,2.7,0.7c1.3,0.1,2.4-0.1,3.3-0.5c0.9-0.4,1.6-1.1,2.1-2.1
					c0.5-1,0.8-2.3,1-3.9l1.1-15.5l-2.8-0.2l0-0.6L224.7,35.7z"/>
				<path class="st1" d="M224.3,59.2l0.1-0.6l2.7,0.6l4.6-21.6L229,37l0.1-0.6l16.2,3.4l-1.3,6.2l-0.6-0.1c0.2-1.1,0.3-2.1,0.2-3
					c-0.1-0.9-0.5-1.7-1.1-2.3c-0.6-0.6-1.5-1.1-2.7-1.3l-5.2-1.1l-4.6,21.6l4.8,1c1.4,0.3,2.5,0.3,3.4-0.1s1.6-0.9,2.1-1.8
					c0.5-0.9,0.9-1.9,1.2-3.2l0.6,0.1l-1.4,6.8L224.3,59.2z M236.5,52.9c0.1-0.7,0.1-1.3,0-1.8c-0.2-0.5-0.5-0.9-0.9-1.2
					c-0.4-0.3-0.9-0.5-1.5-0.7l-2.5-0.5l0.1-0.6l2.5,0.5c0.6,0.1,1.1,0.1,1.6,0c0.5-0.1,0.9-0.3,1.3-0.7c0.4-0.4,0.6-0.9,0.7-1.6
					l0.6,0.1l-1.4,6.5L236.5,52.9z"/>
				<path class="st1" d="M249.5,65.3l0.2-0.6l2.6,1.1l8.3-20.4l-2.6-1.1l0.2-0.6l7.9,3.2l-0.2,0.6l-2.6-1l-8.3,20.4l4.4,1.8
					c1.1,0.5,2.1,0.7,2.9,0.7c0.8,0,1.5-0.2,2-0.5c0.6-0.4,1-0.9,1.5-1.6c0.4-0.7,0.8-1.5,1.2-2.4l0.6,0.2l-2.6,6.5L249.5,65.3z"/>
				<path class="st1" d="M288.2,57.4l-4.8,24l2.1,1.2l-0.3,0.5l-7.8-4.5l0.3-0.5l2.7,1.6l4.3-19.4l-15.2,13l2.8,1.7l-0.3,0.5
					l-5.9-3.4l0.3-0.5l2.4,1.4l18.7-15.8L288.2,57.4z M274.9,68.6l0.3-0.5l8.7,5.1l-0.3,0.5L274.9,68.6z"/>
				<path class="st1" d="M286.1,83.9l0.4-0.5l7.3,5.8c0.7,0.6,1.5,0.9,2.4,1c0.9,0.1,1.8,0,2.7-0.5c0.9-0.4,1.7-1.1,2.5-2
					c0.8-1,1.2-1.9,1.3-2.7s0-1.7-0.4-2.4c-0.4-0.7-0.9-1.4-1.6-1.9l-2.9-2.3L298,78l3.2,2.5c1.1,0.9,2.1,1.9,2.8,2.9
					c0.7,1,1.1,2.1,1.2,3.2c0.1,1.1-0.3,2.2-1.2,3.2c-1.5,1.8-3.1,2.7-4.8,2.6c-1.8-0.1-3.6-0.9-5.5-2.5L286.1,83.9z M288.4,85.5
					l14.2-17.8l2.3,1.9l-14.2,17.8L288.4,85.5z M297.9,78.1l0.3-0.3l2.7,2.1c0.6,0.5,1.3,0.8,2,1c0.8,0.2,1.5,0.2,2.3-0.1
					c0.8-0.3,1.6-0.9,2.4-1.9s1.2-1.9,1.4-2.8s0.1-1.7-0.2-2.5s-0.8-1.4-1.4-1.9l-7-5.6l0.4-0.5l7,5.6c1.8,1.5,3,3,3.5,4.6
					c0.5,1.6,0.2,3.2-1.1,4.7c-1.3,1.6-2.7,2.3-4.3,2.1c-1.6-0.1-3.4-1-5.3-2.6L297.9,78.1z"/>
				<path class="st1" d="M315.1,96.9c-0.2-0.2-0.4-0.5-0.5-0.8s-0.1-0.6,0-1s0.3-0.6,0.5-0.8c0.2-0.2,0.5-0.4,0.9-0.5
					c0.3-0.1,0.6-0.1,1,0s0.6,0.3,0.8,0.5c0.2,0.2,0.4,0.5,0.5,0.9c0.1,0.3,0.1,0.6,0,1c-0.1,0.3-0.3,0.6-0.5,0.8s-0.5,0.4-0.9,0.5
					c-0.3,0.1-0.6,0.1-1,0C315.6,97.3,315.3,97.1,315.1,96.9z"/>
				<path class="st1" d="M346.5,114.9l-0.5,0.3l-1.7-2.4l-12.7,8.9c-2.1,1.5-4,2.1-5.7,1.9c-1.7-0.2-3.2-1.3-4.6-3.4
					c-1.5-2.2-2.2-4.1-1.9-5.8c0.3-1.7,1.5-3.3,3.7-4.9l12.7-8.9l-1.6-2.3l0.5-0.3l5.1,7.2l-0.5,0.3l-1.8-2.5l-12.5,8.7
					c-0.8,0.6-1.6,1.2-2.2,1.8s-1.1,1.3-1.4,2c-0.3,0.7-0.4,1.4-0.3,2.2c0.1,0.8,0.5,1.6,1.1,2.6c0.7,1,1.5,1.8,2.4,2.3
					s1.9,0.6,3,0.4c1.1-0.2,2.3-0.8,3.6-1.7l12.7-8.9l-1.6-2.3l0.5-0.3L346.5,114.9z"/>
				<path class="st1" d="M332.9,139.5c-0.9-1.9-1.3-3.8-1.1-5.6c0.2-1.9,0.9-3.6,2.1-5.2s2.9-2.9,4.9-3.9s4.1-1.5,6.1-1.6
					c2,0,3.8,0.5,5.4,1.4c1.6,1,2.9,2.4,3.8,4.3c0.5,0.9,0.7,1.9,0.8,2.9s0,2-0.2,2.9l2.3,0.7l0.2,0.5l-5.7,2.8l-0.3-0.6
					c1.1-0.6,1.8-1.4,2.4-2.3c0.5-1,0.8-2,0.8-3.1c0-1.1-0.3-2.2-0.8-3.2c-0.6-1.2-1.4-2.1-2.4-2.6c-1-0.6-2.1-0.8-3.3-0.9
					c-1.2,0-2.5,0.1-3.8,0.5c-1.3,0.4-2.6,0.9-3.9,1.5c-1.3,0.6-2.4,1.4-3.5,2.2c-1.1,0.8-2,1.7-2.7,2.7c-0.7,1-1.1,2-1.3,3.1
					c-0.2,1.1,0.1,2.3,0.7,3.5c0.5,0.9,1,1.7,1.6,2.3c0.6,0.6,1.3,1.1,2.1,1.4c0.8,0.3,1.5,0.4,2.3,0.4c0.8,0,1.6-0.2,2.3-0.5
					l0.3,0.6l-5.7,2.8l-0.2-0.5l1-2.1c-0.9-0.3-1.8-0.9-2.6-1.6S333.4,140.6,332.9,139.5z"/>
				<path class="st1" d="M364.7,156.5l-6,2l-0.2-0.6c1-0.4,1.9-0.8,2.7-1.4c0.7-0.6,1.2-1.3,1.4-2.1c0.2-0.8,0.2-1.8-0.2-3l-1.6-4.7
					l-20.9,7.1l1,2.9l-0.6,0.2l-2.8-8.4l0.6-0.2l0.9,2.6l20.9-7.1l-0.9-2.6l0.6-0.2L364.7,156.5z M348.9,156.3
					c0.7-0.2,1.1-0.5,1.5-0.9c0.3-0.4,0.5-0.9,0.5-1.5c0-0.6-0.1-1.3-0.4-2.2l-0.7-1.9l0.6-0.2l0.7,1.9c0.3,0.9,0.6,1.5,1,2
					c0.3,0.5,0.8,0.8,1.2,0.9c0.5,0.1,1,0.1,1.7-0.2l0.2,0.6l-6,2L348.9,156.3z"/>
				<path class="st1" d="M344.8,173l0.6-0.1l0.6,3.4l21.7-3.8l-0.6-3.4l0.6-0.1l1.7,9.9l-0.6,0.1l-0.6-3.7l-21.7,3.8l0.6,3.7
					l-0.6,0.1L344.8,173z"/>
				<path class="st1" d="M347,193c-0.1-1.3,0-2.5,0.4-3.5c0.3-1,0.9-1.9,1.5-2.6l-2.3-1.3l0-0.5l6.4-0.5l0,0.6
					c-0.8,0.2-1.6,0.5-2.3,1s-1.3,0.9-1.8,1.5c-0.5,0.6-0.8,1.3-1.1,2.1c-0.2,0.8-0.3,1.7-0.2,2.8c0.1,1.1,0.3,2,0.8,2.8
					s1,1.3,1.8,1.7c0.7,0.4,1.6,0.5,2.6,0.5c0.9-0.1,1.7-0.3,2.2-0.8s1.1-1.1,1.5-1.9c0.4-0.8,0.8-1.6,1.1-2.5
					c0.3-0.9,0.7-1.8,1-2.7c0.4-0.9,0.8-1.7,1.3-2.5c0.5-0.8,1.1-1.4,1.9-1.9s1.7-0.8,2.9-0.9c1.1-0.1,2.2,0.1,3.1,0.6
					c0.9,0.5,1.6,1.2,2.2,2.2c0.5,0.9,0.9,2,1,3.2c0.1,1,0,2-0.3,2.8c-0.3,0.9-0.7,1.7-1.3,2.3l2.1,1.3l0,0.5l-6.4,0.5l0-0.6
					c1.3-0.3,2.3-0.8,3.1-1.4s1.4-1.4,1.7-2.3c0.3-0.9,0.5-1.8,0.4-2.9c-0.1-1.5-0.5-2.6-1.3-3.3c-0.8-0.7-1.7-1-2.8-0.9
					c-0.8,0.1-1.5,0.3-2,0.8c-0.5,0.5-1,1.1-1.4,1.8c-0.4,0.8-0.7,1.6-1,2.5c-0.3,0.9-0.7,1.8-1,2.7c-0.4,0.9-0.8,1.7-1.4,2.5
					c-0.5,0.8-1.2,1.4-2,1.9c-0.8,0.5-1.8,0.8-3.1,0.9c-1.3,0.1-2.5-0.1-3.6-0.6c-1-0.5-1.9-1.3-2.5-2.3S347.1,194.4,347,193z"/>
				<path class="st1" d="M370.1,223.3l-0.6,0l0.2-2.9l-15.5-0.9c-2.5-0.2-4.4-0.8-5.6-2.1c-1.2-1.2-1.7-3.1-1.6-5.5
					c0.2-2.7,0.9-4.6,2.1-5.8c1.3-1.2,3.2-1.7,5.9-1.5l15.5,0.9l0.2-2.8l0.6,0l-0.5,8.8l-0.6,0l0.2-3.1l-15.2-0.9
					c-1-0.1-2,0-2.9,0.1c-0.9,0.1-1.7,0.3-2.3,0.7c-0.7,0.3-1.2,0.9-1.6,1.6s-0.6,1.6-0.7,2.7c-0.1,1.3,0.1,2.4,0.5,3.3
					s1.1,1.6,2.1,2.1c1,0.5,2.3,0.8,3.9,0.9l15.5,0.9l0.2-2.8l0.6,0L370.1,223.3z"/>
				<path class="st1" d="M346.7,223.2l0.6,0.1l-0.5,2.7l21.6,4.3l0.5-2.7l0.6,0.1l-3.2,16.2l-6.2-1.2l0.1-0.6c1.1,0.2,2.1,0.3,3,0.1
					c0.9-0.1,1.7-0.5,2.3-1.1s1.1-1.5,1.3-2.7l1-5.2l-21.6-4.3l-1,4.8c-0.3,1.4-0.2,2.5,0.1,3.4c0.3,0.9,1,1.6,1.8,2.1
					c0.9,0.5,1.9,0.9,3.2,1.2l-0.1,0.6l-6.8-1.4L346.7,223.2z M353,235.3c0.7,0.1,1.3,0.1,1.8-0.1c0.5-0.2,0.9-0.5,1.2-0.9
					c0.3-0.4,0.5-0.9,0.6-1.5l0.5-2.5l0.6,0.1l-0.5,2.5c-0.1,0.6-0.1,1.1,0,1.6c0.1,0.5,0.4,0.9,0.7,1.3s0.9,0.6,1.6,0.7l-0.1,0.6
					l-6.5-1.3L353,235.3z"/>
				<path class="st1" d="M340.8,248.5l0.6,0.2l-1,2.6l20.5,8.1l1-2.6l0.6,0.2l-3.1,7.9l-0.6-0.2l1-2.6l-20.5-8.1l-1.8,4.5
					c-0.4,1.1-0.7,2.1-0.7,2.9c0,0.8,0.2,1.5,0.6,2s0.9,1,1.6,1.4c0.7,0.4,1.5,0.8,2.4,1.1l-0.2,0.6l-6.5-2.6L340.8,248.5z"/>
				<path class="st1" d="M349.2,287l-24-4.5l-1.2,2.1l-0.5-0.3l4.4-7.8l0.5,0.3l-1.6,2.8l19.4,4l-13.1-15l-1.6,2.9l-0.5-0.3l3.4-5.9
					l0.5,0.3l-1.4,2.5l16.1,18.5L349.2,287z M337.8,273.8l0.5,0.3l-5,8.7l-0.5-0.3L337.8,273.8z"/>
				<path class="st1" d="M322.7,285.3l0.5,0.4l-5.7,7.3c-0.5,0.7-0.9,1.5-1,2.4c-0.1,0.9,0.1,1.8,0.5,2.7c0.4,0.9,1.1,1.7,2.1,2.5
					c1,0.8,1.9,1.2,2.8,1.3c0.9,0.1,1.7,0,2.4-0.4c0.7-0.4,1.4-0.9,1.9-1.6l2.3-2.9l0.3,0.2l-2.5,3.2c-0.9,1.1-1.9,2.1-2.9,2.8
					c-1,0.7-2.1,1.1-3.2,1.2s-2.2-0.3-3.2-1.1c-1.8-1.4-2.7-3-2.6-4.8c0.1-1.8,0.9-3.6,2.4-5.6L322.7,285.3z M321.1,287.6l17.9,14
					l-1.8,2.3l-17.9-14L321.1,287.6z M328.5,296.9l0.3,0.2l-2.1,2.7c-0.5,0.6-0.8,1.3-1,2.1s-0.1,1.5,0.1,2.3
					c0.3,0.8,0.9,1.6,1.9,2.3c1,0.8,1.9,1.2,2.8,1.4c0.9,0.1,1.7,0.1,2.5-0.3c0.8-0.3,1.4-0.8,1.9-1.4l5.5-7.1l0.5,0.4l-5.5,7.1
					c-1.4,1.8-3,3-4.5,3.6c-1.6,0.6-3.2,0.2-4.8-1c-1.6-1.2-2.3-2.7-2.2-4.3c0.1-1.6,1-3.4,2.5-5.3L328.5,296.9z"/>
				<path class="st1" d="M310,314.4c0.2-0.2,0.5-0.4,0.8-0.5s0.6-0.1,1,0c0.3,0.1,0.6,0.3,0.8,0.5c0.2,0.2,0.4,0.5,0.5,0.9
					c0.1,0.3,0.1,0.6,0,1s-0.2,0.6-0.5,0.8c-0.2,0.2-0.5,0.4-0.9,0.5c-0.3,0.1-0.6,0.1-1,0c-0.3-0.1-0.6-0.3-0.8-0.5
					c-0.2-0.2-0.4-0.5-0.5-0.8c-0.1-0.3-0.1-0.6,0-1C309.6,314.9,309.7,314.6,310,314.4z"/>
				<path class="st1" d="M292.3,346l-0.4-0.5l2.4-1.7l-9-12.6c-1.5-2.1-2.1-4-1.9-5.6s1.3-3.2,3.3-4.7c2.2-1.6,4.1-2.2,5.8-2
					c1.7,0.2,3.3,1.4,4.9,3.6l9,12.6l2.3-1.6l0.4,0.5l-7.2,5.1l-0.4-0.5l2.5-1.8l-8.9-12.4c-0.6-0.8-1.2-1.6-1.8-2.2
					c-0.6-0.6-1.3-1.1-2-1.4c-0.7-0.3-1.4-0.4-2.2-0.3s-1.6,0.5-2.5,1.2c-1,0.7-1.8,1.6-2.2,2.5c-0.4,0.9-0.6,1.9-0.3,3
					c0.2,1.1,0.8,2.3,1.7,3.6l9,12.6l2.3-1.7l0.4,0.5L292.3,346z"/>
				<path class="st1" d="M267.5,332.6c1.9-1,3.7-1.3,5.6-1.1c1.9,0.2,3.6,0.9,5.2,2.1s2.9,2.8,4,4.9s1.6,4.1,1.6,6.1
					c0,2-0.4,3.8-1.3,5.5c-0.9,1.6-2.3,2.9-4.2,3.9c-0.9,0.5-1.9,0.8-2.9,0.9s-2,0-2.9-0.2l-0.6,2.3l-0.5,0.2l-2.9-5.7l0.6-0.3
					c0.6,1.1,1.4,1.8,2.4,2.3c1,0.5,2,0.7,3.1,0.7s2.2-0.3,3.2-0.8c1.2-0.6,2.1-1.4,2.6-2.4c0.5-1,0.8-2.1,0.8-3.3
					c0-1.2-0.2-2.5-0.5-3.8c-0.4-1.3-0.9-2.6-1.5-3.8s-1.4-2.4-2.2-3.5c-0.8-1.1-1.8-2-2.7-2.6c-1-0.7-2-1.1-3.2-1.2
					s-2.3,0.1-3.5,0.7c-0.9,0.5-1.7,1-2.3,1.7c-0.6,0.7-1,1.4-1.3,2.1c-0.3,0.8-0.4,1.5-0.4,2.3c0,0.8,0.2,1.6,0.5,2.3l-0.6,0.3
					l-2.9-5.7l0.5-0.2l2.1,1c0.3-0.9,0.9-1.8,1.6-2.6C265.6,333.8,266.5,333.2,267.5,332.6z"/>
				<path class="st1" d="M250.9,364.7l-2.1-6l0.6-0.2c0.4,1,0.8,1.9,1.4,2.6c0.6,0.7,1.3,1.2,2.1,1.4c0.8,0.2,1.8,0.1,3-0.3l4.7-1.6
					l-7.3-20.8l-2.9,1l-0.2-0.6l8.3-2.9l0.2,0.6l-2.6,0.9l7.3,20.8l2.6-0.9l0.2,0.6L250.9,364.7z M250.9,348.8
					c0.2,0.7,0.5,1.1,0.9,1.5c0.4,0.3,0.9,0.5,1.5,0.5c0.6,0,1.3-0.1,2.2-0.4l1.9-0.7l0.2,0.6l-1.9,0.7c-0.8,0.3-1.5,0.6-2,1
					s-0.8,0.8-0.9,1.2c-0.1,0.5-0.1,1,0.2,1.7l-0.6,0.2l-2.1-6L250.9,348.8z"/>
				<path class="st1" d="M234.2,344.9l0.1,0.6l-3.4,0.6l4,21.7l3.4-0.6l0.1,0.6l-9.9,1.8l-0.1-0.6l3.7-0.7l-4-21.7l-3.7,0.7
					l-0.1-0.6L234.2,344.9z"/>
				<path class="st1" d="M214.3,347.4c1.3-0.1,2.5,0,3.5,0.3c1,0.3,1.9,0.8,2.6,1.5l1.3-2.3l0.5,0l0.5,6.3l-0.6,0.1
					c-0.2-0.8-0.6-1.6-1-2.3c-0.4-0.7-0.9-1.3-1.6-1.7c-0.6-0.5-1.3-0.8-2.1-1.1s-1.7-0.3-2.8-0.2c-1.1,0.1-2,0.4-2.8,0.8
					s-1.3,1-1.7,1.8c-0.4,0.7-0.5,1.6-0.4,2.6c0.1,0.9,0.4,1.7,0.9,2.2c0.5,0.6,1.1,1.1,1.9,1.5c0.8,0.4,1.6,0.8,2.5,1.1
					c0.9,0.3,1.8,0.6,2.7,1c0.9,0.3,1.8,0.8,2.5,1.3c0.8,0.5,1.4,1.1,1.9,1.9c0.5,0.8,0.8,1.7,0.9,2.9c0.1,1.1-0.1,2.2-0.6,3.1
					c-0.5,0.9-1.2,1.6-2.1,2.2c-0.9,0.6-2,0.9-3.2,1c-1,0.1-2,0-2.8-0.2s-1.7-0.7-2.4-1.3l-1.3,2.1l-0.5,0l-0.5-6.3l0.6,0
					c0.3,1.3,0.8,2.3,1.4,3.1c0.6,0.8,1.4,1.4,2.3,1.7c0.9,0.3,1.8,0.5,2.9,0.4c1.5-0.1,2.6-0.6,3.3-1.3c0.7-0.8,1-1.7,0.9-2.9
					c-0.1-0.8-0.3-1.5-0.8-2c-0.5-0.5-1.1-1-1.9-1.3c-0.8-0.4-1.6-0.7-2.5-1s-1.8-0.6-2.7-1c-0.9-0.4-1.7-0.8-2.5-1.4
					c-0.8-0.5-1.4-1.2-1.9-2c-0.5-0.8-0.8-1.8-0.9-3c-0.1-1.3,0.1-2.5,0.6-3.6c0.5-1,1.2-1.9,2.3-2.5
					C211.6,347.9,212.8,347.5,214.3,347.4z"/>
				<path class="st1" d="M184.2,370.9l0-0.6l2.9,0.1l0.7-15.5c0.1-2.5,0.8-4.4,2-5.6c1.2-1.2,3-1.7,5.5-1.6c2.7,0.1,4.6,0.8,5.8,2.1
					c1.2,1.2,1.7,3.2,1.6,5.9l-0.7,15.5l2.8,0.1l0,0.6l-8.8-0.4l0-0.6l3.1,0.1l0.7-15.2c0-1,0-2-0.1-2.9c-0.1-0.9-0.3-1.7-0.7-2.3
					c-0.4-0.7-0.9-1.2-1.6-1.6c-0.7-0.4-1.6-0.6-2.7-0.7c-1.3-0.1-2.4,0.1-3.3,0.6c-0.9,0.4-1.6,1.1-2.1,2.1c-0.5,1-0.8,2.3-0.9,3.9
					l-0.7,15.5l2.8,0.1l0,0.6L184.2,370.9z"/>
				<path class="st1" d="M184.1,347.4L184,348l-2.7-0.5l-4.1,21.7l2.7,0.5l-0.1,0.6l-16.3-3l1.2-6.2l0.6,0.1c-0.2,1.1-0.2,2.1-0.1,3
					s0.5,1.7,1.1,2.3c0.6,0.6,1.5,1,2.7,1.3l5.2,1l4.1-21.7l-4.9-0.9c-1.4-0.3-2.5-0.2-3.4,0.1c-0.9,0.4-1.6,1-2.1,1.8
					c-0.5,0.9-0.9,2-1.1,3.2l-0.6-0.1l1.3-6.9L184.1,347.4z M172,353.9c-0.1,0.7-0.1,1.3,0.1,1.8c0.2,0.5,0.5,0.9,0.9,1.2
					c0.4,0.3,0.9,0.5,1.5,0.6l2.5,0.5l-0.1,0.6l-2.5-0.5c-0.6-0.1-1.1-0.1-1.6,0c-0.5,0.1-0.9,0.4-1.3,0.7s-0.6,0.9-0.7,1.6
					l-0.6-0.1l1.2-6.5L172,353.9z"/>
				<path class="st1" d="M158.7,341.8l-0.2,0.6l-2.6-1L148,362l2.6,1l-0.2,0.6l-8-3l0.2-0.6l2.6,1l7.8-20.6l-4.5-1.7
					c-1.1-0.4-2.1-0.6-2.9-0.6c-0.8,0-1.5,0.2-2,0.6c-0.5,0.4-1,0.9-1.4,1.6c-0.4,0.7-0.8,1.5-1.1,2.4l-0.6-0.2l2.5-6.5L158.7,341.8
					z"/>
				<path class="st1" d="M120.3,350.6l4.2-24.1l-2.1-1.2l0.3-0.5l7.9,4.4l-0.3,0.5l-2.8-1.5l-3.8,19.5l14.9-13.3l-2.9-1.6l0.3-0.5
					l6,3.3l-0.3,0.5l-2.5-1.4l-18.3,16.3L120.3,350.6z M133.3,339.1l-0.3,0.5l-8.8-4.9l0.3-0.5L133.3,339.1z"/>
				<path class="st1" d="M110.1,330.1l-0.2,0.3l-2.7-2.1c-0.6-0.5-1.3-0.8-2.1-1s-1.5-0.1-2.3,0.2c-0.8,0.3-1.6,0.9-2.3,1.9
					c-0.7,1-1.2,1.9-1.3,2.8c-0.1,0.9,0,1.7,0.3,2.5s0.8,1.4,1.4,1.8l7.1,5.5l-0.4,0.5l-7.1-5.5c-1.9-1.4-3.1-2.9-3.7-4.5
					s-0.2-3.2,1-4.8c1.2-1.6,2.6-2.3,4.2-2.2c1.6,0.1,3.4,0.9,5.4,2.4L110.1,330.1z M121.7,324.1l-0.4,0.5l-7.4-5.6
					c-0.7-0.5-1.5-0.9-2.4-0.9c-0.9-0.1-1.8,0.1-2.7,0.5c-0.9,0.4-1.7,1.1-2.5,2.1c-0.7,1-1.2,1.9-1.3,2.8s0.1,1.7,0.4,2.4
					c0.4,0.7,0.9,1.4,1.6,1.9l3,2.3l-0.2,0.3l-3.2-2.5c-1.2-0.9-2.1-1.8-2.9-2.9c-0.7-1-1.2-2.1-1.3-3.2c-0.1-1.1,0.3-2.2,1.1-3.2
					c1.4-1.8,3-2.7,4.7-2.7s3.6,0.9,5.6,2.4L121.7,324.1z M119.4,322.6l-13.8,18.1l-2.4-1.8l13.8-18.1L119.4,322.6z"/>
				<path class="st1" d="M92.5,311.8c0.2,0.2,0.4,0.5,0.5,0.8c0.1,0.3,0.1,0.6,0,1c-0.1,0.3-0.2,0.6-0.5,0.8s-0.5,0.4-0.8,0.5
					c-0.3,0.1-0.6,0.1-1,0c-0.3-0.1-0.6-0.2-0.8-0.5c-0.2-0.2-0.4-0.5-0.5-0.8c-0.1-0.3-0.1-0.6,0-1c0.1-0.3,0.3-0.6,0.5-0.8
					s0.5-0.4,0.8-0.5c0.3-0.1,0.6-0.1,1,0C92,311.3,92.2,311.5,92.5,311.8z"/>
				<path class="st1" d="M60.6,294.5l0.5-0.4l1.7,2.4l12.5-9.2c2.1-1.5,3.9-2.2,5.6-2c1.7,0.2,3.3,1.3,4.7,3.2
					c1.6,2.2,2.3,4.1,2,5.8s-1.4,3.4-3.6,4.9l-12.5,9.2l1.6,2.2l-0.5,0.4l-5.2-7.1l0.5-0.4l1.8,2.5l12.3-9c0.8-0.6,1.5-1.2,2.2-1.9
					c0.6-0.6,1.1-1.3,1.4-2c0.3-0.7,0.4-1.4,0.2-2.2c-0.1-0.8-0.5-1.6-1.2-2.5c-0.8-1-1.6-1.8-2.5-2.2c-0.9-0.4-1.9-0.5-3-0.3
					s-2.3,0.8-3.6,1.8l-12.5,9.2l1.7,2.3l-0.5,0.4L60.6,294.5z"/>
				<path class="st1" d="M73.7,269.5c1,1.9,1.4,3.7,1.2,5.6s-0.8,3.6-2,5.2s-2.8,3-4.8,4c-2,1.1-4.1,1.6-6.1,1.7
					c-2,0.1-3.8-0.4-5.5-1.3c-1.6-0.9-3-2.3-3.9-4.2c-0.5-0.9-0.8-1.9-0.9-2.8s-0.1-2,0.2-2.9l-2.3-0.6l-0.3-0.5l5.6-3l0.3,0.5
					c-1,0.6-1.8,1.4-2.3,2.4c-0.5,1-0.7,2-0.7,3.1s0.3,2.1,0.8,3.1c0.6,1.2,1.4,2,2.4,2.6c1,0.5,2.1,0.8,3.3,0.8
					c1.2,0,2.5-0.2,3.8-0.6c1.3-0.4,2.6-0.9,3.8-1.6s2.4-1.4,3.5-2.3s1.9-1.8,2.6-2.8c0.7-1,1.1-2.1,1.2-3.2
					c0.1-1.1-0.1-2.3-0.8-3.5c-0.5-0.9-1-1.7-1.7-2.2c-0.7-0.6-1.4-1-2.1-1.3c-0.8-0.3-1.5-0.4-2.3-0.4s-1.6,0.2-2.3,0.6l-0.3-0.5
					l5.6-3l0.3,0.5l-0.9,2.2c0.9,0.3,1.8,0.8,2.6,1.6C72.5,267.6,73.2,268.5,73.7,269.5z"/>
				<path class="st1" d="M41.5,253.3l6-2.2l0.2,0.6c-1,0.4-1.9,0.9-2.6,1.5c-0.7,0.6-1.2,1.3-1.4,2.2s-0.1,1.8,0.3,3l1.7,4.6
					l20.7-7.5l-1.1-2.9l0.6-0.2l3,8.3l-0.6,0.2l-1-2.6l-20.7,7.5l1,2.6l-0.6,0.2L41.5,253.3z M57.3,253.1c-0.7,0.2-1.1,0.6-1.5,0.9
					c-0.3,0.4-0.5,0.9-0.5,1.5c0,0.6,0.1,1.3,0.5,2.2l0.7,1.9l-0.6,0.2l-0.7-1.9c-0.3-0.8-0.6-1.5-1-2c-0.4-0.5-0.8-0.7-1.2-0.9
					c-0.5-0.1-1,0-1.7,0.2l-0.2-0.6l6-2.2L57.3,253.1z"/>
				<path class="st1" d="M61,236.3l-0.6,0.1l-0.7-3.3l-21.6,4.3l0.7,3.3l-0.6,0.1l-2-9.9l0.6-0.1l0.7,3.6l21.6-4.3l-0.7-3.6l0.6-0.1
					L61,236.3z"/>
				<path class="st1" d="M58.4,216.4c0.1,1.3,0,2.5-0.3,3.5c-0.3,1-0.8,1.9-1.5,2.6l2.3,1.2l0.1,0.5l-6.3,0.6l-0.1-0.6
					c0.8-0.2,1.6-0.6,2.3-1c0.7-0.4,1.2-1,1.7-1.6c0.5-0.6,0.8-1.3,1-2.2c0.2-0.8,0.3-1.7,0.2-2.8c-0.1-1.1-0.4-2-0.8-2.8
					c-0.4-0.8-1-1.3-1.8-1.7c-0.7-0.4-1.6-0.5-2.6-0.4c-0.9,0.1-1.6,0.4-2.2,0.9c-0.6,0.5-1.1,1.1-1.4,1.9s-0.7,1.6-1,2.5
					c-0.3,0.9-0.6,1.8-1,2.7c-0.3,0.9-0.8,1.8-1.2,2.5s-1.1,1.4-1.9,2s-1.7,0.8-2.8,1c-1.1,0.1-2.2-0.1-3.1-0.6
					c-0.9-0.5-1.7-1.2-2.2-2.1s-0.9-2-1-3.2c-0.1-1,0-2,0.2-2.8s0.7-1.7,1.3-2.4l-2.1-1.2l0-0.5l6.3-0.6l0.1,0.6
					c-1.3,0.3-2.3,0.8-3.1,1.5c-0.8,0.7-1.3,1.4-1.7,2.3c-0.3,0.9-0.4,1.8-0.3,2.9c0.1,1.5,0.6,2.6,1.4,3.2c0.8,0.7,1.7,1,2.9,0.9
					c0.8-0.1,1.5-0.4,2-0.9c0.5-0.5,1-1.1,1.3-1.9s0.7-1.6,1-2.5c0.3-0.9,0.6-1.8,1-2.7c0.4-0.9,0.8-1.7,1.3-2.5
					c0.5-0.8,1.2-1.4,2-1.9c0.8-0.5,1.8-0.8,3-1c1.3-0.1,2.5,0,3.6,0.5c1,0.5,1.9,1.2,2.5,2.2C57.8,213.8,58.2,215,58.4,216.4z"/>
				<path class="st1" d="M34.5,186.7l0.6,0l-0.1,2.9l15.5,0.6c2.6,0.1,4.4,0.7,5.6,1.9c1.2,1.2,1.8,3,1.7,5.5
					c-0.1,2.7-0.8,4.6-2,5.8c-1.2,1.2-3.2,1.8-5.9,1.7l-15.5-0.6l-0.1,2.8l-0.6,0l0.3-8.8l0.6,0l-0.1,3.1l15.2,0.6c1,0,2,0,2.9-0.1
					c0.9-0.1,1.6-0.4,2.3-0.7c0.7-0.4,1.2-0.9,1.6-1.6c0.4-0.7,0.6-1.6,0.6-2.7c0-1.3-0.1-2.4-0.6-3.3c-0.4-0.9-1.2-1.6-2.1-2.1
					c-1-0.5-2.3-0.8-3.9-0.8L35,190.2l-0.1,2.9l-0.6,0L34.5,186.7z"/>
				<path class="st1" d="M58,186.2l-0.6-0.1l0.5-2.7l-21.7-3.8l-0.5,2.7l-0.6-0.1l2.9-16.3l6.3,1.1l-0.1,0.6c-1.1-0.2-2.1-0.2-3,0
					s-1.7,0.6-2.3,1.2c-0.6,0.6-1,1.5-1.2,2.7l-0.9,5.2l21.7,3.8l0.9-4.9c0.2-1.4,0.2-2.5-0.2-3.4c-0.4-0.9-1-1.6-1.9-2.1
					c-0.9-0.5-2-0.9-3.3-1.1l0.1-0.6l6.9,1.2L58,186.2z M51.4,174.2c-0.7-0.1-1.3-0.1-1.8,0.1c-0.5,0.2-0.9,0.5-1.2,0.9
					c-0.3,0.4-0.5,0.9-0.6,1.5l-0.4,2.5l-0.6-0.1l0.4-2.5c0.1-0.6,0.1-1.1,0-1.6c-0.1-0.5-0.4-0.9-0.8-1.2c-0.4-0.3-0.9-0.6-1.6-0.7
					l0.1-0.6l6.5,1.2L51.4,174.2z"/>
				<path class="st1" d="M63.3,160.8l-0.6-0.2l1-2.6L43,150.4l-1,2.6l-0.6-0.2l2.9-8L45,145l-1,2.6l20.7,7.6l1.7-4.5
					c0.4-1.1,0.6-2.1,0.6-2.9c0-0.8-0.2-1.5-0.6-2c-0.4-0.5-0.9-1-1.6-1.4c-0.7-0.4-1.5-0.8-2.4-1.1l0.2-0.6l6.5,2.4L63.3,160.8z"/>
				<path class="st1" d="M54.1,122.4l24.1,3.9l1.1-2.1l0.5,0.3l-4.3,7.9l-0.5-0.3l1.5-2.8l-19.5-3.6l13.5,14.7l1.6-2.9l0.5,0.3
					l-3.2,6l-0.5-0.3l1.3-2.5L53.7,123L54.1,122.4z M65.7,135.4l-0.5-0.3l4.8-8.8l0.5,0.3L65.7,135.4z"/>
				<path class="st1" d="M74.4,112.1l-0.3-0.2l2-2.7c0.5-0.6,0.8-1.3,1-2.1c0.2-0.8,0.1-1.5-0.2-2.3c-0.3-0.8-1-1.6-1.9-2.3
					s-1.9-1.2-2.9-1.3c-0.9-0.1-1.7,0-2.5,0.3c-0.7,0.3-1.4,0.8-1.8,1.4l-5.4,7.2l-0.5-0.4l5.4-7.2c1.4-1.9,2.9-3.1,4.5-3.7
					c1.6-0.6,3.2-0.3,4.8,0.9c1.6,1.2,2.4,2.6,2.3,4.2c-0.1,1.6-0.9,3.4-2.4,5.4L74.4,112.1z M82.1,121.2l-18.3-13.6l1.8-2.4
					l18.3,13.6L82.1,121.2z M80.6,123.6l-0.5-0.4l5.6-7.5c0.5-0.7,0.8-1.5,0.9-2.4c0.1-0.9-0.1-1.8-0.5-2.7
					c-0.4-0.9-1.1-1.7-2.1-2.4c-1-0.7-1.9-1.1-2.8-1.2c-0.9-0.1-1.7,0.1-2.4,0.5c-0.7,0.4-1.4,1-1.9,1.7l-2.2,3l-0.3-0.2l2.4-3.2
					c0.9-1.2,1.8-2.1,2.8-2.9c1-0.8,2.1-1.2,3.2-1.3c1.1-0.1,2.2,0.2,3.2,1c1.9,1.4,2.8,3,2.7,4.7c-0.1,1.8-0.8,3.6-2.3,5.6
					L80.6,123.6z"/>
				<path class="st1" d="M92.6,94.2c-0.2,0.2-0.5,0.4-0.8,0.5c-0.3,0.1-0.6,0.1-1,0c-0.3-0.1-0.6-0.2-0.8-0.5
					c-0.2-0.2-0.4-0.5-0.5-0.8c-0.1-0.3-0.1-0.6,0-1c0.1-0.3,0.2-0.6,0.5-0.8c0.2-0.2,0.5-0.4,0.8-0.5c0.3-0.1,0.6-0.1,1,0
					s0.6,0.2,0.8,0.5c0.2,0.2,0.4,0.5,0.5,0.8c0.1,0.3,0.1,0.6,0,1C93,93.7,92.8,94,92.6,94.2z"/>
			</g>
		</g>
	</g>
</g>
</svg>
