<svg xmlns="http://www.w3.org/2000/svg" viewBox="0 0 405.54 405.54">
  <defs>
    <style>
      .cls-1{font-size:30px;fill:var(--color-line, #32302a);font-family:Arial, sans-serif;font-weight:400;}
      .cls-2{fill:none;stroke:var(--color-line, #32302a);stroke-miterlimit:10;stroke-width:3px;}
    </style>
  </defs>
  <title>Mindscape</title>
  <g id="Layer_2" data-name="Layer 2">
    <g id="Layer_1-2" data-name="Layer 1">
      <text class="cls-1" transform="translate(112.5 75) rotate(-36)">M</text>
      <text class="cls-1" transform="translate(138.5 62) rotate(-28)">I</text>
      <text class="cls-1" transform="translate(152.5 56) rotate(-22)">N</text>
      <text class="cls-1" transform="translate(175.5 50) rotate(-14)">D</text>
      <text class="cls-1" transform="translate(200.5 48) rotate(-6)">S</text>
      <text class="cls-1" transform="translate(225.5 50) rotate(2)">C</text>
      <text class="cls-1" transform="translate(250.5 55) rotate(10)">A</text>
      <text class="cls-1" transform="translate(274.5 64) rotate(18)">P</text>
      <text class="cls-1" transform="translate(296.5 76) rotate(26)">E</text>
      <text class="cls-1" transform="translate(316.5 92) rotate(36)"> </text>
      <text class="cls-1" transform="translate(328.5 105) rotate(44)">•</text>
      <text class="cls-1" transform="translate(342.5 125) rotate(54)"> </text>
      <text class="cls-1" transform="translate(352.5 150) rotate(64)">M</text>
      <text class="cls-1" transform="translate(358.5 180) rotate(74)">I</text>
      <text class="cls-1" transform="translate(360.5 200) rotate(80)">N</text>
      <text class="cls-1" transform="translate(358.5 228) rotate(90)">D</text>
      <text class="cls-1" transform="translate(352.5 255) rotate(100)">S</text>
      <text class="cls-1" transform="translate(342.5 280) rotate(110)">C</text>
      <text class="cls-1" transform="translate(328.5 304) rotate(120)">A</text>
      <text class="cls-1" transform="translate(310.5 325) rotate(130)">P</text>
      <text class="cls-1" transform="translate(288.5 342) rotate(140)">E</text>
      <text class="cls-1" transform="translate(264.5 355) rotate(150)"> </text>
      <text class="cls-1" transform="translate(245.5 362) rotate(158)">•</text>
      <text class="cls-1" transform="translate(218.5 368) rotate(168)"> </text>
      <text class="cls-1" transform="translate(188.5 370) rotate(178)">M</text>
      <text class="cls-1" transform="translate(158.5 368) rotate(188)">I</text>
      <text class="cls-1" transform="translate(142.5 364) rotate(194)">N</text>
      <text class="cls-1" transform="translate(118.5 355) rotate(204)">D</text>
      <text class="cls-1" transform="translate(96.5 340) rotate(214)">S</text>
      <text class="cls-1" transform="translate(76.5 320) rotate(224)">C</text>
      <text class="cls-1" transform="translate(60.5 296) rotate(234)">A</text>
      <text class="cls-1" transform="translate(48.5 268) rotate(244)">P</text>
      <text class="cls-1" transform="translate(42.5 240) rotate(254)">E</text>
      <text class="cls-1" transform="translate(40.5 210) rotate(264)"> </text>
      <text class="cls-1" transform="translate(42.5 188) rotate(272)">•</text>
      <text class="cls-1" transform="translate(48.5 162) rotate(282)"> </text>
      <text class="cls-1" transform="translate(60.5 135) rotate(292)">M</text>
      <text class="cls-1" transform="translate(78.5 110) rotate(304)">I</text>
      <text class="cls-1" transform="translate(90.5 96) rotate(310)">N</text>
      <text class="cls-1" transform="translate(110.5 78) rotate(320)">D</text>
      <text class="cls-1" transform="translate(135.5 64) rotate(330)">S</text>
      <text class="cls-1" transform="translate(162.5 54) rotate(340)">C</text>
      <text class="cls-1" transform="translate(190.5 48) rotate(350)">A</text>
      <circle class="cls-2" cx="202.77" cy="202.77" r="121.05"/>
      <circle class="cls-2" cx="202.77" cy="202.77" r="201.27"/>
    </g>
  </g>
</svg>