<?xml version="1.0" encoding="utf-8"?>
<!-- Generator: Adobe Illustrator 24.0.2, SVG Export Plug-In . SVG Version: 6.00 Build 0)  -->
<svg version="1.1" id="Layer_1" xmlns="http://www.w3.org/2000/svg" xmlns:xlink="http://www.w3.org/1999/xlink" x="0px" y="0px"
	 viewBox="0 0 405.5 405.5" style="enable-background:new 0 0 405.5 405.5;" xml:space="preserve">
<style type="text/css">
	.st0{fill:none;stroke:#32302A;stroke-width:3;stroke-miterlimit:10;}
	.st1{fill:#32302A;}
</style>
<title>Asset 5</title>
<g id="Layer_2_1_">
	<g id="Layer_1-2">
		<circle class="st0" cx="202.8" cy="202.8" r="121.1"/>
		<circle class="st0" cx="202.8" cy="202.8" r="201.3"/>
		<g>
			<g>
				<path class="st1" d="M100,63.2L114.6,86l2.3-1.5l0.4,0.6l-5.2,3.3l-0.4-0.6l2.2-1.4L99.8,64.2l-2.4,1.5L97,65.1L100,63.2z
					 M123.5,81.6L99.7,63.4l3-1.9l19.7,14.9l-5.7-23.8l0.7-0.4l6.9,28.9L123.5,81.6z M122.3,49l0.4,0.6l-2.2,1.4l14.1,22.2l2.2-1.4
					l0.4,0.6l-7.7,4.9l-0.4-0.6l2.5-1.6l-14.5-22.8L122.3,49z"/>
				<path class="st1" d="M138.8,72.4l-0.3-0.7l3.7-1.6L131.6,46l-3.7,1.6l-0.3-0.7l11-4.8l0.3,0.7l-4.1,1.8l10.6,24.1l4.1-1.8
					l0.3,0.7L138.8,72.4z"/>
				<path class="st1" d="M156.3,65.2l-0.2-0.7l3.9-1.1l-7.3-25.3l-3.6,1c-1,0.3-1.8,0.7-2.4,1.2c-0.5,0.5-0.9,1.2-1.1,1.9
					c-0.2,0.7-0.2,1.6,0,2.5c0.1,0.9,0.4,2,0.7,3.1l-0.7,0.2l-2.3-8l21.7-6.3l2.3,8l-0.7,0.2c-0.3-1.1-0.7-2.1-1.1-3
					c-0.4-0.9-0.9-1.6-1.4-2.1c-0.5-0.5-1.2-0.9-1.9-1c-0.7-0.1-1.6-0.1-2.7,0.2l-3.6,1l7.3,25.3l3.9-1.1l0.2,0.7L156.3,65.2z"/>
				<path class="st1" d="M185.3,30.5l0.9,27l2.7-0.1l0,0.7l-6.1,0.2l0-0.7l2.6-0.1l-0.9-26.3l-2.8,0.1l0-0.7L185.3,30.5z
					 M196.1,58.3l-11.2-27.8l3.5-0.1l9.3,22.8l7.2-23.4l0.8,0L197,58.3L196.1,58.3z M211.7,29.7l0,0.7l-2.6,0.1l0.9,26.3l2.6-0.1
					l0,0.7l-9.1,0.3l0-0.7l3-0.1l-0.9-27L211.7,29.7z"/>
				<path class="st1" d="M213.8,57.9l0.1-0.7l3.3,0.5l3.8-26l-3.3-0.5l0.1-0.7l19.5,2.9l-1.1,7.5l-0.7-0.1c0.2-1.3,0.2-2.5,0-3.6
					c-0.2-1.1-0.7-2-1.5-2.7c-0.8-0.7-1.9-1.2-3.3-1.4l-6.2-0.9l-3.8,26l5.8,0.9c1.7,0.2,3,0.1,4.1-0.3c1-0.5,1.8-1.2,2.4-2.3
					c0.6-1.1,1-2.4,1.2-3.9l0.7,0.1l-1.2,8.2L213.8,57.9z M227.9,49.5c0.1-0.8,0.1-1.5-0.2-2.1c-0.2-0.6-0.6-1.1-1.1-1.4
					c-0.5-0.3-1.1-0.6-1.8-0.7l-3.1-0.5l0.1-0.7l3.1,0.5c0.7,0.1,1.3,0.1,1.9-0.1c0.6-0.2,1.1-0.5,1.5-0.9c0.4-0.5,0.6-1.1,0.8-1.9
					l0.7,0.1l-1.2,7.9L227.9,49.5z"/>
				<path class="st1" d="M253.8,37.8c2.6,0.8,4.7,2.1,6.2,3.9c1.5,1.8,2.5,3.8,2.9,6.1c0.4,2.3,0.2,4.7-0.6,7.2
					c-0.6,1.9-1.5,3.5-2.6,4.9s-2.4,2.5-4,3.4c-1.5,0.8-3.2,1.3-4.9,1.5c-1.8,0.2-3.6-0.1-5.5-0.7l-9.9-3.2l0.2-0.7l3.2,1l8.1-25
					l-3.2-1l0.2-0.7L253.8,37.8z M242.2,62.4l3.3,1.1c1.6,0.5,3.1,0.6,4.4,0.3c1.3-0.3,2.5-1,3.6-2c1.1-1,2-2.2,2.7-3.6
					c0.8-1.4,1.4-2.9,1.9-4.5c0.5-1.6,0.8-3.2,1-4.8s0.1-3.1-0.2-4.5c-0.3-1.4-0.9-2.6-1.8-3.7c-0.9-1-2.1-1.8-3.6-2.3l-3.3-1.1
					L242.2,62.4z"/>
				<path class="st1" d="M260,69.5l0.3-0.6l3.7,1.8l11.4-23.7l-3.7-1.8l0.3-0.6l10.8,5.2l-0.3,0.7l-4-1.9l-11.4,23.7l4,1.9l-0.3,0.7
					L260,69.5z"/>
				<path class="st1" d="M299.6,59.2l-7.4,28.2l2.4,1.6l-0.4,0.6l-8.9-6l0.4-0.6l3.2,2.1l6.5-22.8l-19,14.3l3.3,2.2l-0.4,0.6
					l-6.8-4.5l0.4-0.6l2.8,1.9l23.4-17.5L299.6,59.2z M282.9,71.6l0.4-0.6l10,6.7l-0.4,0.6L282.9,71.6z"/>
				<path class="st1" d="M301.7,96.4l0.5-0.5l2.3,2.4l19.2-18l-2.3-2.4l0.5-0.5l7,7.4l-0.5,0.5l-2.3-2.4l-19.2,18l3.9,4.2
					c1,1.1,1.9,1.8,2.8,2.2s1.7,0.5,2.5,0.4c0.8-0.1,1.6-0.5,2.4-1s1.6-1.2,2.5-2l0.5,0.5l-6.1,5.7L301.7,96.4z"/>
				<path class="st1" d="M347.6,107.8L329.9,131l1.6,2.4l-0.6,0.4l-5.9-8.9l0.6-0.4l2.1,3.2l14.7-18.5l-23.1,5.9l2.2,3.3l-0.6,0.4
					l-4.5-6.8l0.6-0.4l1.9,2.8l28.3-7.2L347.6,107.8z M327.4,112.8l0.6-0.4l6.6,10l-0.6,0.4L327.4,112.8z"/>
				<path class="st1" d="M331.3,134.9l0.7-0.3l4.4,10.2c0.4,1,1.1,1.8,1.9,2.4c0.9,0.6,1.9,0.9,3.1,1s2.4-0.2,3.8-0.8
					c1.3-0.6,2.3-1.3,2.9-2.2c0.6-0.9,0.9-1.8,0.9-2.8c0-1-0.2-2-0.6-2.9l-1.8-4.1l0.4-0.2l1.9,4.4c0.7,1.6,1.1,3.1,1.3,4.7
					c0.2,1.5,0,2.9-0.5,4c-0.5,1.2-1.5,2.1-3,2.7c-2.5,1.1-4.7,1.1-6.5,0c-1.8-1.1-3.3-3-4.5-5.7L331.3,134.9z M332.9,137.9
					l24.9-10.9l1.4,3.2l-24.9,10.9L332.9,137.9z M347,135.4l0.4-0.2l1.6,3.7c0.4,0.9,0.9,1.6,1.6,2.2c0.7,0.6,1.5,1,2.5,1.2
					c1,0.1,2.2-0.1,3.5-0.7c1.3-0.6,2.4-1.3,3-2.2c0.7-0.9,1-1.8,1.1-2.8c0.1-1,0-1.9-0.4-2.7l-4.3-9.8l0.7-0.3l4.3,9.8
					c1.1,2.6,1.5,4.8,1.2,6.8c-0.3,2-1.6,3.4-3.8,4.4c-2.2,1-4.1,0.9-5.7-0.1c-1.6-1-3-2.9-4.2-5.7L347,135.4z"/>
				<path class="st1" d="M354.4,165c-0.1-0.4-0.1-0.8,0-1.1c0.1-0.4,0.3-0.7,0.6-1c0.3-0.3,0.6-0.5,1-0.6s0.8-0.1,1.2,0
					c0.4,0.1,0.7,0.3,1,0.6s0.5,0.6,0.6,1s0.1,0.8,0,1.2s-0.3,0.7-0.6,1c-0.3,0.3-0.6,0.5-1,0.6s-0.8,0.1-1.2,0
					c-0.4-0.1-0.7-0.3-1-0.6S354.5,165.4,354.4,165z"/>
				<path class="st1" d="M374.7,182.4l-27,1.4l0.1,2.7l-0.7,0l-0.3-6.1l0.7,0l0.1,2.6l26.3-1.4l-0.1-2.8l0.7,0L374.7,182.4z
					 M347.1,193.7l27.5-11.8l0.2,3.5l-22.7,9.8l23.5,6.8l0,0.8l-28.6-8.2L347.1,193.7z M376.1,208.8l-0.7,0l-0.1-2.6l-26.3,1.4
					l0.1,2.6l-0.7,0l-0.5-9.1l0.7,0l0.2,3l27-1.4L376.1,208.8z"/>
				<path class="st1" d="M347.7,211.5l0.7,0.1l-0.4,4l26.2,2.6l0.4-4l0.7,0.1l-1.2,12l-0.7-0.1l0.4-4.4l-26.2-2.6l-0.4,4.4l-0.7-0.1
					L347.7,211.5z"/>
				<path class="st1" d="M345.3,230.4l0.7,0.2l-0.9,4l25.6,6l0.8-3.6c0.2-1.1,0.3-2,0.1-2.7c-0.2-0.7-0.6-1.4-1.1-1.9
					s-1.3-0.9-2.2-1.3c-0.9-0.3-1.9-0.6-3-0.9l0.2-0.7l8.1,1.9l-5.1,22.1l-8.1-1.9l0.2-0.7c1.1,0.3,2.2,0.4,3.1,0.5
					c0.9,0.1,1.8,0,2.5-0.2c0.7-0.2,1.3-0.6,1.8-1.2c0.5-0.6,0.9-1.4,1.1-2.4l0.8-3.6l-25.6-6l-0.9,4l-0.7-0.2L345.3,230.4z"/>
				<path class="st1" d="M349.2,296.1l-0.6-0.3l1.2-2.3l-23.3-12.1l-1.2,2.3l-0.6-0.3l4.2-8.1l0.6,0.3l-1.4,2.6l24,12.5L349.2,296.1
					z M331.9,268.4l29.7,3.8l-1.6,3.2l-24.5-3.1l16.8,17.8l-0.4,0.7l-20.5-21.6L331.9,268.4z M361.4,272.6l-24-12.5l-1.3,2.4
					l-0.6-0.3l2.8-5.4l0.6,0.3l-1.2,2.3l23.3,12.1l1.3-2.5l0.6,0.3L361.4,272.6z"/>
				<path class="st1" d="M323.6,284l0.6,0.4l-2,2.6l20.8,16.2l2-2.6l0.6,0.4l-12.1,15.6l-6-4.7l0.4-0.6c1,0.8,2.1,1.4,3.1,1.7
					c1,0.3,2.1,0.4,3.1,0c1-0.3,1.9-1,2.8-2.2l3.9-5l-20.8-16.2l-3.6,4.7c-1,1.3-1.6,2.6-1.7,3.7c-0.1,1.1,0.2,2.2,0.8,3.2
					c0.6,1,1.6,2,2.8,3l-0.4,0.6l-6.6-5.1L323.6,284z M323.9,300.4c0.7,0.5,1.3,0.8,1.9,0.9c0.6,0.1,1.2,0,1.8-0.3
					c0.6-0.3,1-0.7,1.5-1.2l1.9-2.4l0.6,0.4l-1.9,2.4c-0.4,0.6-0.7,1.1-0.9,1.7c-0.1,0.6-0.1,1.2,0.1,1.7s0.6,1.1,1.3,1.6l-0.4,0.6
					l-6.3-4.9L323.9,300.4z"/>
				<path class="st1" d="M321.4,328.8c-2,1.9-4.2,3-6.4,3.5c-2.3,0.5-4.5,0.3-6.8-0.5s-4.2-2.2-6-4.1c-1.3-1.4-2.3-3-3-4.7
					c-0.7-1.7-1-3.4-1-5.1c0-1.7,0.4-3.4,1.1-5s1.8-3.1,3.2-4.4l7.6-7l0.5,0.5l-2.4,2.3l17.9,19.3l2.4-2.3l0.5,0.5L321.4,328.8z
					 M305.6,306.5l-2.6,2.4c-1.3,1.2-2.1,2.4-2.4,3.7c-0.4,1.3-0.4,2.7,0,4.1c0.3,1.4,0.9,2.8,1.8,4.1c0.8,1.4,1.8,2.7,3,3.9
					c1.1,1.2,2.4,2.3,3.7,3.2s2.7,1.6,4.1,2c1.4,0.4,2.7,0.5,4.1,0.3s2.6-0.9,3.8-2l2.6-2.4L305.6,306.5z"/>
				<path class="st1" d="M290.7,318.6l0.4,0.6l-3.3,2.3l15.1,21.5l3.3-2.3l0.4,0.6l-9.8,6.9l-0.4-0.6l3.6-2.5l-15.1-21.5l-3.6,2.5
					l-0.4-0.6L290.7,318.6z"/>
				<path class="st1" d="M280.4,358.2l-21-20.3l-2.6,1.3l-0.3-0.6l9.6-4.9l0.3,0.6l-3.4,1.7l16.7,16.8l-3.2-23.6L273,331l-0.3-0.6
					l7.3-3.7l0.3,0.6l-3,1.5l3.8,29L280.4,358.2z M277.7,337.5l0.3,0.6l-10.7,5.4l-0.3-0.6L277.7,337.5z"/>
				<path class="st1" d="M246.9,341.8l0.2,0.7l-3.2,0.8l6.2,25.6l3.2-0.8l0.2,0.7l-9.9,2.4l-0.2-0.7l3.2-0.8l-6.2-25.6l-5.6,1.4
					c-1.4,0.3-2.5,0.8-3.3,1.3c-0.8,0.5-1.3,1.2-1.6,1.9c-0.3,0.7-0.4,1.6-0.3,2.5c0.1,0.9,0.3,2,0.5,3.1l-0.7,0.2l-2-8.1
					L246.9,341.8z"/>
				<path class="st1" d="M214.4,376.2l-11.5-26.8l-2.9,0.2l-0.1-0.7l10.7-0.8l0.1,0.7l-3.8,0.3l8.9,21.9l6.2-23l-3.9,0.3l-0.1-0.7
					l8.1-0.6l0.1,0.7l-3.4,0.2l-7.7,28.2L214.4,376.2z M220,356.1l0.1,0.7l-12,0.9L208,357L220,356.1z"/>
				<path class="st1" d="M190.7,362l0,0.5l-4-0.4c-0.9-0.1-1.8,0-2.7,0.3c-0.9,0.3-1.6,0.8-2.3,1.6c-0.6,0.8-1,1.9-1.2,3.4
					c-0.1,1.5,0,2.7,0.4,3.7c0.4,1,1.1,1.8,1.9,2.4c0.8,0.6,1.7,0.9,2.6,1l10.7,1.1l-0.1,0.7l-10.7-1.1c-2.8-0.3-5-1-6.5-2.3
					c-1.6-1.2-2.2-3.1-2-5.5c0.2-2.4,1.2-4,2.9-4.9s4-1.2,7-0.9L190.7,362z M198.7,348.7l-0.1,0.7l-11-1.1c-1.1-0.1-2.1,0.1-3,0.5
					c-1,0.5-1.8,1.2-2.4,2.2c-0.6,1-1,2.2-1.2,3.7c-0.1,1.5,0,2.7,0.5,3.6s1.1,1.7,2,2.2c0.9,0.5,1.8,0.8,2.9,0.9l4.4,0.4l0,0.5
					l-4.8-0.5c-1.7-0.2-3.3-0.5-4.7-1.1c-1.4-0.6-2.5-1.4-3.3-2.4c-0.8-1-1.1-2.4-0.9-4c0.3-2.8,1.3-4.7,3.2-5.7s4.2-1.4,7.2-1.1
					L198.7,348.7z M195.4,348.6l-2.7,27.1l-3.5-0.4l2.7-27.1L195.4,348.6z"/>
				<path class="st1" d="M161.2,354.1c0.4,0.1,0.7,0.3,1,0.6c0.3,0.3,0.5,0.6,0.6,1c0.1,0.4,0.1,0.8,0,1.2c-0.1,0.4-0.3,0.7-0.6,1
					c-0.3,0.3-0.6,0.5-1,0.6c-0.4,0.1-0.8,0.1-1.2,0s-0.7-0.3-1-0.6c-0.3-0.3-0.5-0.6-0.6-1c-0.1-0.4-0.1-0.8,0-1.2
					c0.1-0.4,0.3-0.7,0.6-1c0.3-0.3,0.6-0.5,1-0.6C160.5,354,160.8,354,161.2,354.1z"/>
				<path class="st1" d="M112.5,351.5l0.3-0.6l2.3,1.1l11.7-23.6l-2.3-1.1l0.3-0.6l8.1,4l-0.3,0.6l-2.7-1.3l-12,24.2L112.5,351.5z
					 M139.7,333.6l-3.3,29.8l-3.2-1.6l2.6-24.5l-17.4,17.2l-0.7-0.3l21.2-20.9L139.7,333.6z M136.2,363.2l12-24.2l-2.5-1.2l0.3-0.6
					l5.5,2.7l-0.3,0.6l-2.4-1.2l-11.7,23.6l2.5,1.2l-0.3,0.6L136.2,363.2z"/>
				<path class="st1" d="M124,325.4l-0.4,0.6l-3.3-2.3l-15.1,21.5l3.3,2.3l-0.4,0.6l-9.8-6.9l0.4-0.6l3.6,2.6l15.1-21.5l-3.6-2.6
					l0.4-0.6L124,325.4z"/>
				<path class="st1" d="M108.7,314.1l-0.5,0.5l-3-2.8l-17.8,19.4l2.7,2.5c0.8,0.7,1.6,1.2,2.3,1.4c0.7,0.2,1.5,0.2,2.2-0.1
					s1.4-0.7,2.2-1.3c0.7-0.6,1.5-1.3,2.3-2.2l0.5,0.5l-5.6,6.1l-16.7-15.3l5.6-6.1l0.5,0.5c-0.8,0.9-1.5,1.7-2,2.5
					c-0.5,0.8-0.9,1.5-1.1,2.3s-0.1,1.5,0.1,2.2c0.3,0.7,0.8,1.4,1.6,2.2l2.7,2.5l17.8-19.4l-3-2.8l0.5-0.5L108.7,314.1z"/>
				<path class="st1" d="M49.6,285.2l0.6-0.4l1.4,2.2l22-14.4l-1.4-2.2l0.6-0.4l5,7.6l-0.6,0.4l-1.6-2.5l-22.6,14.8L49.6,285.2z
					 M82.1,283.6l-17.9,24l-1.9-3L77,284.8l-23.7,6l-0.4-0.7l28.8-7.3L82.1,283.6z M64,307.3l22.6-14.8l-1.5-2.3l0.6-0.4l3.4,5.1
					l-0.6,0.4l-1.4-2.2l-22,14.4l1.5,2.4l-0.6,0.4L64,307.3z"/>
				<path class="st1" d="M72.6,268.8l-0.7,0.3l-1.3-3.1l-24.3,10.2l1.3,3.1l-0.7,0.3l-7.6-18.2l7-2.9l0.3,0.7
					c-1.2,0.5-2.2,1.1-3,1.9c-0.8,0.7-1.3,1.6-1.5,2.7s0,2.2,0.5,3.5l2.4,5.8l24.3-10.2l-2.3-5.4c-0.7-1.6-1.5-2.7-2.4-3.3
					c-0.9-0.6-2-0.9-3.2-0.9c-1.2,0.1-2.5,0.4-4,1l-0.3-0.7l7.7-3.2L72.6,268.8z M58.2,261c-0.8,0.3-1.3,0.7-1.7,1.2
					s-0.6,1.1-0.6,1.7c0,0.6,0.1,1.2,0.4,1.9l1.2,2.8l-0.7,0.3l-1.2-2.8c-0.3-0.6-0.6-1.2-1.1-1.6c-0.4-0.4-1-0.7-1.6-0.8
					c-0.6-0.1-1.3,0-2,0.3l-0.3-0.7l7.3-3.1L58.2,261z"/>
				<path class="st1" d="M34.7,244.9c-0.6-2.7-0.6-5.1,0.1-7.3c0.7-2.2,2-4.1,3.8-5.6c1.8-1.5,4-2.6,6.5-3.2
					c1.9-0.5,3.8-0.6,5.6-0.3c1.8,0.2,3.4,0.8,4.9,1.6c1.5,0.9,2.8,2,3.8,3.4c1.1,1.4,1.8,3.1,2.3,5l2.4,10.1l-0.7,0.2l-0.8-3.2
					L37,251.6l0.8,3.2l-0.7,0.2L34.7,244.9z M61.8,242.1l-0.8-3.4c-0.4-1.7-1.1-3-2.1-3.9s-2.2-1.6-3.5-2c-1.4-0.4-2.9-0.6-4.5-0.5
					s-3.2,0.3-4.9,0.7c-1.6,0.4-3.2,0.9-4.6,1.6c-1.5,0.7-2.7,1.5-3.7,2.5c-1,1-1.8,2.1-2.2,3.4c-0.4,1.3-0.5,2.7-0.1,4.3l0.8,3.4
					L61.8,242.1z"/>
				<path class="st1" d="M58.6,223.2l-0.7,0.1l-0.4-4.1l-26.2,2.5l0.4,4.1l-0.7,0.1l-1.2-12l0.7-0.1l0.4,4.4l26.2-2.5l-0.4-4.4
					l0.7-0.1L58.6,223.2z"/>
				<path class="st1" d="M29.2,194.8l27.9-8.4l0.1-2.9l0.7,0l-0.5,10.7l-0.7,0l0.2-3.8l-22.8,6.3l22.2,8.8l0.2-3.9l0.7,0l-0.3,8.1
					l-0.7,0l0.1-3.4l-27.1-10.9L29.2,194.8z M48.5,202.6l-0.7,0l0.5-12l0.7,0L48.5,202.6z"/>
				<path class="st1" d="M59.9,173.6l-0.7-0.2l0.9-3.2l-25.3-7.1l-0.9,3.2l-0.7-0.2l2.7-9.8l0.7,0.2l-0.9,3.2l25.3,7.1l1.5-5.5
					c0.4-1.4,0.5-2.6,0.4-3.5s-0.4-1.7-0.9-2.3c-0.5-0.6-1.2-1.1-2.1-1.5c-0.9-0.4-1.9-0.7-3-1.1l0.2-0.7l8,2.2L59.9,173.6z"/>
				<path class="st1" d="M45.8,128.4l29,3.1l1.2-2.6l0.7,0.3l-4.6,9.7l-0.7-0.3l1.6-3.4l-23.5-3l17,16.7l1.7-3.5l0.7,0.3l-3.5,7.4
					l-0.7-0.3l1.4-3.1l-20.8-20.5L45.8,128.4z M60.6,143.1l-0.7-0.3l5.1-10.8l0.7,0.3L60.6,143.1z"/>
				<path class="st1" d="M69.8,114.7l-0.4-0.3l2.3-3.3c0.5-0.8,0.9-1.6,1.1-2.5c0.2-0.9,0.1-1.8-0.3-2.8s-1.2-1.8-2.4-2.7
					c-1.2-0.8-2.3-1.3-3.4-1.4c-1.1-0.1-2.1,0-3,0.5s-1.6,1-2.1,1.8l-6.2,8.8l-0.6-0.4l6.2-8.8c1.6-2.3,3.4-3.8,5.2-4.6
					c1.9-0.8,3.8-0.4,5.7,1c2,1.4,2.9,3,2.9,4.9c-0.1,1.9-0.9,4.1-2.7,6.5L69.8,114.7z M79.2,125.4L57,109.7l2-2.9l22.2,15.7
					L79.2,125.4z M77.5,128.3l-0.6-0.4l6.4-9.1c0.6-0.9,0.9-1.8,1-2.9c0.1-1.1-0.2-2.1-0.7-3.2s-1.4-2-2.6-2.8
					c-1.2-0.8-2.3-1.3-3.4-1.4s-2,0.1-2.9,0.6c-0.9,0.5-1.6,1.2-2.2,2l-2.6,3.6l-0.4-0.3l2.8-3.9c1-1.4,2.1-2.6,3.3-3.5
					c1.2-0.9,2.4-1.5,3.7-1.6c1.3-0.2,2.6,0.2,3.9,1.1c2.3,1.6,3.4,3.4,3.4,5.5c0,2.1-0.9,4.4-2.6,6.8L77.5,128.3z"/>
				<path class="st1" d="M91.3,93c-0.3,0.3-0.6,0.5-1,0.6c-0.4,0.1-0.8,0.1-1.1,0c-0.4-0.1-0.7-0.3-1-0.6s-0.5-0.6-0.6-1
					s-0.1-0.8,0-1.1s0.3-0.7,0.6-1c0.3-0.3,0.6-0.5,1-0.6c0.4-0.1,0.8-0.1,1.1,0s0.7,0.3,1,0.6c0.3,0.3,0.5,0.6,0.6,1
					c0.1,0.4,0.1,0.8,0,1.1C91.7,92.4,91.5,92.7,91.3,93z"/>
			</g>
		</g>
	</g>
</g>
</svg>
