<svg xmlns="http://www.w3.org/2000/svg" viewBox="0 0 405.54 405.54">
  <defs>
    <style>
      .cls-1{font-size:39.5px;fill:var(--color-line, #32302a);font-family:Arial, sans-serif;font-weight:400;}
      .cls-2{fill:none;stroke:var(--color-line, #32302a);stroke-miterlimit:10;stroke-width:3px;}
    </style>
  </defs>
  <title>Penti</title>
  <g id="Layer_2" data-name="Layer 2">
    <g id="Layer_1-2" data-name="Layer 1">
      <text class="cls-1" transform="translate(135.5 68.5) rotate(-22)">P</text>
      <text class="cls-1" transform="translate(160.5 58) rotate(-12)">E</text>
      <text class="cls-1" transform="translate(186.5 53) rotate(-2)">N</text>
      <text class="cls-1" transform="translate(214.5 53) rotate(8)">T</text>
      <text class="cls-1" transform="translate(240.5 58) rotate(18)">I</text>
      <text class="cls-1" transform="translate(258.5 64) rotate(26)"> </text>
      <text class="cls-1" transform="translate(275.5 74) rotate(36)">•</text>
      <text class="cls-1" transform="translate(295.5 88) rotate(48)"> </text>
      <text class="cls-1" transform="translate(312.5 105) rotate(58)">P</text>
      <text class="cls-1" transform="translate(328.5 126) rotate(70)">E</text>
      <text class="cls-1" transform="translate(342.5 150) rotate(80)">N</text>
      <text class="cls-1" transform="translate(350.5 178) rotate(90)">T</text>
      <text class="cls-1" transform="translate(352.5 206) rotate(100)">I</text>
      <text class="cls-1" transform="translate(350.5 228) rotate(108)"> </text>
      <text class="cls-1" transform="translate(345.5 250) rotate(118)">•</text>
      <text class="cls-1" transform="translate(335.5 272) rotate(130)"> </text>
      <text class="cls-1" transform="translate(320.5 294) rotate(140)">P</text>
      <text class="cls-1" transform="translate(300.5 314) rotate(152)">E</text>
      <text class="cls-1" transform="translate(276.5 332) rotate(162)">N</text>
      <text class="cls-1" transform="translate(250.5 344) rotate(172)">T</text>
      <text class="cls-1" transform="translate(222.5 351) rotate(182)">I</text>
      <text class="cls-1" transform="translate(198.5 352) rotate(190)"> </text>
      <text class="cls-1" transform="translate(172.5 350) rotate(200)">•</text>
      <text class="cls-1" transform="translate(148.5 342) rotate(212)"> </text>
      <text class="cls-1" transform="translate(125.5 328) rotate(222)">P</text>
      <text class="cls-1" transform="translate(105.5 308) rotate(234)">E</text>
      <text class="cls-1" transform="translate(88.5 284) rotate(244)">N</text>
      <text class="cls-1" transform="translate(72.5 256) rotate(254)">T</text>
      <text class="cls-1" transform="translate(60.5 226) rotate(264)">I</text>
      <text class="cls-1" transform="translate(55.5 200) rotate(272)"> </text>
      <text class="cls-1" transform="translate(55.5 174) rotate(282)">•</text>
      <text class="cls-1" transform="translate(62.5 148) rotate(294)"> </text>
      <text class="cls-1" transform="translate(75.5 122) rotate(304)">P</text>
      <text class="cls-1" transform="translate(95.5 98) rotate(316)">E</text>
      <text class="cls-1" transform="translate(118.5 78) rotate(326)">N</text>
      <text class="cls-1" transform="translate(145.5 62) rotate(336)">T</text>
      <text class="cls-1" transform="translate(175.5 54) rotate(346)">I</text>
      <circle class="cls-2" cx="202.77" cy="202.77" r="121.05"/>
      <circle class="cls-2" cx="202.77" cy="202.77" r="201.27"/>
    </g>
  </g>
</svg>