<svg xmlns="http://www.w3.org/2000/svg" viewBox="0 0 405.54 405.54"><defs><style>.cls-1{font-size:39.5px;fill:#8c9a9e;font-family:MyriadPro-Regular, Myriad Pro;}.cls-2{fill:none;stroke:#8c9a9e;stroke-miterlimit:10;stroke-width:3px;}</style></defs><title>Asset 7</title><g id="Layer_2" data-name="Layer 2"><g id="Layer_1-2" data-name="Layer 1"><text class="cls-1" transform="translate(134.12 69.87) rotate(-23.62)">S</text><text class="cls-1" transform="translate(151.03 62.16) rotate(-15.28)">U</text><text class="cls-1" transform="translate(174.83 55.82) rotate(-6.96)">S</text><text class="cls-1" transform="matrix(1, 0.02, -0.02, 1, 193.26, 53.37)">T</text><text class="cls-1" transform="translate(209.29 53.18) rotate(7.05)">A</text><text class="cls-1" transform="translate(232.5 56.41) rotate(13.24)">I</text><text class="cls-1" transform="translate(241.13 57.92) rotate(19.81)">N</text><text class="cls-1" transform="translate(264.71 66.87) rotate(26.36)">I</text><text class="cls-1" transform="translate(272.76 70.49) rotate(32.04)">B</text><text class="cls-1" transform="matrix(0.77, 0.63, -0.63, 0.77, 290.19, 81.45)">L</text><text class="cls-1" transform="matrix(0.69, 0.72, -0.72, 0.69, 304.05, 92.73)">E</text><text class="cls-1" transform="translate(316.91 106.52) rotate(51.43)"> </text><text class="cls-1" transform="translate(321.91 112.71) rotate(55)">•</text><text class="cls-1" transform="translate(328.05 121.52) rotate(58.59)"> </text><text class="cls-1" transform="matrix(0.44, 0.9, -0.9, 0.44, 332.35, 128.04)">S</text><text class="cls-1" transform="matrix(0.31, 0.95, -0.95, 0.31, 340.83, 144.57)">U</text><text class="cls-1" transform="matrix(0.17, 0.99, -0.99, 0.17, 348.28, 168.05)">S</text><text class="cls-1" transform="translate(351.45 186.45) rotate(87.54)">T</text><text class="cls-1" transform="translate(352.49 202.32) rotate(94.4)">A</text><text class="cls-1" transform="translate(350.34 225.69) rotate(100.58)">I</text><text class="cls-1" transform="translate(349.24 234.37) rotate(107.13)">N</text><text class="cls-1" transform="translate(341.39 258.36) rotate(113.69)">I</text><text class="cls-1" transform="translate(338.16 266.55) rotate(119.38)">B</text><text class="cls-1" transform="matrix(-0.6, 0.8, -0.8, -0.6, 328.02, 284.48)">L</text><text class="cls-1" transform="translate(317.4 298.83) rotate(133.7)">E</text><text class="cls-1" transform="matrix(-0.75, 0.66, -0.66, -0.75, 304.22, 312.31)"> </text><text class="cls-1" transform="translate(298.26 317.6) rotate(142.35)">•</text><text class="cls-1" transform="matrix(-0.83, 0.56, -0.56, -0.83, 289.75, 324.13)"> </text><text class="cls-1" transform="matrix(-0.86, 0.51, -0.51, -0.86, 283.09, 328.64)"> </text><text class="cls-1" transform="translate(276.56 332.88) rotate(154.13)">S</text><text class="cls-1" transform="translate(259.96 341.25) rotate(162.47)">U</text><text class="cls-1" transform="translate(236.44 348.52) rotate(170.79)">S</text><text class="cls-1" transform="translate(218.02 351.56) rotate(177.95)">T</text><text class="cls-1" transform="translate(202.12 352.49) rotate(-175.18)">A</text><text class="cls-1" transform="translate(178.78 350.16) rotate(-169.01)">I</text><text class="cls-1" transform="translate(170.1 349) rotate(-162.44)">N</text><text class="cls-1" transform="matrix(-0.91, -0.41, 0.41, -0.91, 146.18, 340.98)">I</text><text class="cls-1" transform="translate(137.99 337.68) rotate(-150.2)">B</text><text class="cls-1" transform="matrix(-0.8, -0.6, 0.6, -0.8, 120.15, 327.42)">L</text><text class="cls-1" transform="translate(105.87 316.69) rotate(-135.89)">E</text><text class="cls-1" transform="translate(92.49 303.41) rotate(-130.8)"> </text><text class="cls-1" transform="translate(87.23 297.33) rotate(-127.73)"> </text><text class="cls-1" transform="translate(82.32 291.07) rotate(-124.16)">•</text><text class="cls-1" transform="translate(76.31 282.17) rotate(-120.57)"> </text><text class="cls-1" transform="translate(72.11 275.6) rotate(-115.44)">S</text><text class="cls-1" transform="translate(63.87 258.95) rotate(-107.11)">U</text><text class="cls-1" transform="translate(56.78 235.38) rotate(-98.79)">S</text><text class="cls-1" transform="matrix(-0.03, -1, 1, -0.03, 53.87, 216.91)">T</text><text class="cls-1" transform="translate(53.06 201.02) rotate(-84.77)">A</text><text class="cls-1" transform="matrix(0.2, -0.98, 0.98, 0.2, 55.55, 177.69)">I</text><text class="cls-1" transform="translate(56.78 169.03) rotate(-72.02)">N</text><text class="cls-1" transform="translate(64.98 145.16) rotate(-65.46)">I</text><text class="cls-1" transform="translate(68.34 137) rotate(-59.78)">B</text><text class="cls-1" transform="translate(78.73 119.24) rotate(-52.43)">L</text><text class="cls-1" transform="matrix(0.7, -0.71, 0.71, 0.7, 89.56, 105.04)">E</text><text class="cls-1" transform="translate(102.93 91.76) rotate(-40.39)"> </text><text class="cls-1" transform="matrix(0.8, -0.61, 0.61, 0.8, 109.05, 86.55)"> </text><text class="cls-1" transform="translate(115.35 81.67) rotate(-33.74)">•</text><text class="cls-1" transform="matrix(0.86, -0.5, 0.5, 0.86, 124.28, 75.74)"> </text><circle class="cls-2" cx="202.77" cy="202.77" r="121.05"/><circle class="cls-2" cx="202.77" cy="202.77" r="201.27"/></g></g></svg>