<?xml version="1.0" encoding="UTF-8"?>
<svg id="Layer_2" data-name="Layer 2" xmlns="http://www.w3.org/2000/svg" viewBox="0 0 405.54 405.54">
  <defs>
    <style>
      .cls-1 {
        fill: #231f20;
        font-family: MyriadPro-Regular, 'Myriad Pro';
        font-size: 41px;
      }

      .cls-2 {
        fill: none;
        stroke: #231f20;
        stroke-miterlimit: 10;
        stroke-width: 3px;
      }
    </style>
  </defs>
  <g id="Layer_1-2" data-name="Layer 1">
    <text class="cls-1" transform="translate(134.09 69.86) rotate(-23.53)"><tspan x="0" y="0">F</tspan></text>
    <text class="cls-1" transform="translate(151.37 61.96) rotate(-14.85)"><tspan x="0" y="0">N</tspan></text>
    <text class="cls-1" transform="translate(176.39 55.26) rotate(-5)"><tspan x="0" y="0">U</tspan></text>
    <text class="cls-1" transform="translate(202.1 53.47) rotate(1.38)"><tspan x="0" y="0"> </tspan></text>
    <text class="cls-1" transform="translate(208.57 53.3) rotate(6.06)"><tspan x="0" y="0">T</tspan></text>
    <text class="cls-1" transform="translate(227.99 55.3) rotate(13.52)"><tspan x="0" y="0">E</tspan></text>
    <text class="cls-1" transform="translate(246.76 59.62) rotate(21.65)"><tspan x="0" y="0">C</tspan></text>
    <text class="cls-1" transform="translate(267.97 67.82) rotate(30.96)"><tspan x="0" y="0">H</tspan></text>
    <text class="cls-1" transform="translate(289.97 81.57) rotate(37.45)"><tspan x="0" y="0"> </tspan></text>
    <text class="cls-1" transform="translate(296.61 86.11) rotate(43.38)"><tspan x="0" y="0">C</tspan></text>
    <text class="cls-1" transform="translate(313.18 101.9) rotate(51.26)"><tspan x="0" y="0">L</tspan></text>
    <text class="cls-1" transform="translate(324.13 114.89) rotate(59.12)"><tspan x="0" y="0">U</tspan></text>
    <text class="cls-1" transform="translate(337.15 136.84) rotate(68.11)"><tspan x="0" y="0">B</tspan></text>
    <text class="cls-1" transform="translate(344.91 156.94) rotate(73.82)"><tspan x="0" y="0"> </tspan></text>
    <text class="cls-1" transform="translate(347.49 164.57) rotate(79.46)"><tspan x="0" y="0">P</tspan></text>
    <text class="cls-1" transform="translate(351.38 185.09) rotate(87.48)"><tspan x="0" y="0">R</tspan></text>
    <text class="cls-1" transform="translate(352.3 206.24) rotate(95.13)"><tspan x="0" y="0">E</tspan></text>
    <text class="cls-1" transform="translate(350.63 225.51) rotate(102.56)"><tspan x="0" y="0">S</tspan></text>
    <text class="cls-1" transform="translate(346.17 244.54) rotate(108.11)"><tspan x="0" y="0">I</tspan></text>
    <text class="cls-1" transform="translate(343.9 253.3) rotate(114.96)"><tspan x="0" y="0">D</tspan></text>
    <text class="cls-1" transform="translate(332.62 277.07) rotate(123.7)"><tspan x="0" y="0">E</tspan></text>
    <text class="cls-1" transform="translate(322.23 293.24) rotate(132.32)"><tspan x="0" y="0">N</tspan></text>
    <text class="cls-1" transform="translate(304.62 312.33) rotate(140.96)"><tspan x="0" y="0">T</tspan></text>
    <text class="cls-1" transform="translate(289.13 324.58) rotate(146.28)"><tspan x="0" y="0"> </tspan></text>
    <text class="cls-1" transform="translate(282.28 329.22) rotate(150)"><tspan x="0" y="0">•</tspan></text>
    <text class="cls-1" transform="translate(272.64 334.75) rotate(153.73)"><tspan x="0" y="0"> </tspan></text>
    <text class="cls-1" transform="translate(265.51 338.59) rotate(159.02)"><tspan x="0" y="0">F</tspan></text>
    <text class="cls-1" transform="translate(247.9 345.7) rotate(167.69)"><tspan x="0" y="0">N</tspan></text>
    <text class="cls-1" transform="translate(222.63 351.29) rotate(177.51)"><tspan x="0" y="0">U</tspan></text>
    <text class="cls-1" transform="translate(196.87 351.96) rotate(-176.12)"><tspan x="0" y="0"> </tspan></text>
    <text class="cls-1" transform="translate(190.38 351.85) rotate(-171.41)"><tspan x="0" y="0">T</tspan></text>
    <text class="cls-1" transform="translate(171.08 348.99) rotate(-163.93)"><tspan x="0" y="0">E</tspan></text>
    <text class="cls-1" transform="translate(152.51 343.84) rotate(-155.8)"><tspan x="0" y="0">C</tspan></text>
    <text class="cls-1" transform="translate(131.69 334.7) rotate(-146.52)"><tspan x="0" y="0">H</tspan></text>
    <text class="cls-1" transform="translate(110.29 319.99) rotate(-140.03)"><tspan x="0" y="0"> </tspan></text>
    <text class="cls-1" transform="translate(103.87 315.16) rotate(-134.1)"><tspan x="0" y="0">C</tspan></text>
    <text class="cls-1" transform="translate(88.01 298.67) rotate(-126.22)"><tspan x="0" y="0">L</tspan></text>
    <text class="cls-1" transform="translate(77.64 285.2) rotate(-118.35)"><tspan x="0" y="0">U</tspan></text>
    <text class="cls-1" transform="translate(65.61 262.74) rotate(-109.36)"><tspan x="0" y="0">B</tspan></text>
    <text class="cls-1" transform="translate(58.76 242.3) rotate(-103.64)"><tspan x="0" y="0"> </tspan></text>
    <text class="cls-1" transform="translate(56.51 234.56) rotate(-98.01)"><tspan x="0" y="0">P</tspan></text>
    <text class="cls-1" transform="translate(53.71 213.86) rotate(-90.93)"><tspan x="0" y="0">R</tspan></text>
    <text class="cls-1" transform="translate(53.52 192.71) rotate(-82.35)"><tspan x="0" y="0">E</tspan></text>
    <text class="cls-1" transform="translate(56.04 173.53) rotate(-74.89)"><tspan x="0" y="0">S</tspan></text>
    <text class="cls-1" transform="translate(61.34 154.73) rotate(-69.35)"><tspan x="0" y="0">I</tspan></text>
    <text class="cls-1" transform="translate(64.01 146.06) rotate(-62.5)"><tspan x="0" y="0">D</tspan></text>
    <text class="cls-1" transform="translate(76.32 122.83) rotate(-53.79)"><tspan x="0" y="0">E</tspan></text>
    <text class="cls-1" transform="translate(87.42 107.12) rotate(-45.17)"><tspan x="0" y="0">N</tspan></text>
    <text class="cls-1" transform="translate(105.85 88.82) rotate(-36.52)"><tspan x="0" y="0">T</tspan></text>
    <text class="cls-1" transform="translate(121.79 77.26) rotate(-30.67)"><tspan x="0" y="0">•</tspan></text>
    <text class="cls-1" transform="translate(131.38 71.61) rotate(-26.94)"><tspan x="0" y="0"> </tspan></text>
    <circle class="cls-2" cx="202.77" cy="202.77" r="121.05"/>
    <circle class="cls-2" cx="202.77" cy="202.77" r="201.27"/>
  </g>
</svg>