<?xml version="1.0" encoding="utf-8"?>
<!-- Generator: Adobe Illustrator 24.0.2, SVG Export Plug-In . SVG Version: 6.00 Build 0)  -->
<svg version="1.1" id="Layer_1" xmlns="http://www.w3.org/2000/svg" xmlns:xlink="http://www.w3.org/1999/xlink" x="0px" y="0px"
	 viewBox="0 0 405.5 405.5" style="enable-background:new 0 0 405.5 405.5;" xml:space="preserve">
<style type="text/css">
	.st0{fill:none;stroke:#32302a;stroke-width:3;stroke-miterlimit:10;}
	.st1{fill:#32302a;}
</style>
<title>Asset 7</title>
<g id="Layer_2_1_">
	<g id="Layer_1-2">
		<circle class="st0" cx="202.8" cy="202.8" r="121.1"/>
		<circle class="st0" cx="202.8" cy="202.8" r="201.3"/>
		<g>
			<g>
				<path class="st1" d="M188.4,57.6l-8.6-21.7l-2.8,0.2l0-0.6l22.4-1.4l0,0.6l-7.5,0.5l6.7,17l5.1-17.8l-2.8,0.2l0-0.6l5.9-0.4
					l0,0.6l-2.4,0.2L197.9,57l-0.9,0.1l-8.6-21.7l-5,0.3l6.7,17l2.4-8.5l0.4,1l-3.6,12.3L188.4,57.6z M194.6,42.8l-0.5-0.4l2.2-7.9
					l0.7,0.1L194.6,42.8z"/>
				<path class="st1" d="M209,56.7l0-0.6l3.3,0.3l1.6-21.3l-3.3-0.3l0-0.6l10.2,0.8l0,0.6l-3.6-0.3l-1.6,21.3l3.6,0.3l0,0.6
					L209,56.7z"/>
				<path class="st1" d="M227.7,35.8l-4.4,21.5l2.2,0.4l-0.1,0.6l-4.9-1l0.1-0.6l2.1,0.4l4.3-20.9l-2.2-0.5l0.1-0.6L227.7,35.8z
					 M231,59.7l-3.6-24l3.3,0.7l2.9,19l9.8-16.4l0.6,0.1l-12.3,20.7L231,59.7z M249.2,40.2l-0.1,0.6l-2.1-0.4l-4.3,20.9l2.1,0.4
					l-0.1,0.6l-7.7-1.6l0.1-0.6l2.4,0.5l4.4-21.5L249.2,40.2z"/>
				<path class="st1" d="M260.2,58.8l8,3.1l-0.2,0.6l-1.6-0.6l-1.2,3.1c-0.5,0.3-1,0.7-1.7,1.1c-0.6,0.4-1.4,0.7-2.2,1
					c-0.8,0.3-1.7,0.4-2.7,0.4c-1,0-2.1-0.2-3.2-0.7c-2-0.8-3.5-1.9-4.5-3.3s-1.6-3.1-1.7-5s0.2-3.9,1.1-6c0.6-1.6,1.4-2.9,2.4-4.1
					c1-1.1,2.1-2,3.3-2.6c1.2-0.6,2.6-1,4-1c1.4-0.1,2.8,0.2,4.2,0.7c0.9,0.3,1.7,0.8,2.4,1.4c0.7,0.6,1.3,1.3,1.7,2.1l2.3-0.8
					l0.5,0.2l-2.3,5.9l-0.6-0.2c0.2-0.8,0.3-1.7,0.2-2.5c-0.1-0.8-0.3-1.5-0.7-2.3c-0.4-0.7-0.9-1.3-1.5-1.9s-1.3-1-2.1-1.3
					c-1.2-0.4-2.3-0.5-3.3-0.3c-1,0.3-2,0.8-2.8,1.5c-0.9,0.8-1.7,1.7-2.3,2.8c-0.7,1.1-1.3,2.3-1.8,3.6s-0.9,2.5-1.2,3.8
					s-0.4,2.5-0.4,3.6c0,1.1,0.3,2.1,0.8,3c0.5,0.9,1.3,1.5,2.5,1.9c0.8,0.3,1.5,0.4,2.1,0.4c0.6-0.1,1.2-0.2,1.7-0.4
					c0.5-0.2,0.9-0.5,1.2-0.8s0.6-0.5,0.7-0.7l1.6-4.2l-3-1.1L260.2,58.8z"/>
				<path class="st1" d="M281.8,64.9c-0.5-0.3-0.8-0.6-1.1-1.1c-0.2-0.4-0.4-0.9-0.4-1.4c0-0.5,0.1-1,0.4-1.4
					c0.3-0.5,0.6-0.8,1.1-1.1c0.4-0.2,0.9-0.4,1.4-0.4c0.5,0,1,0.1,1.5,0.4c0.5,0.3,0.8,0.6,1.1,1.1c0.2,0.4,0.4,0.9,0.4,1.4
					c0,0.5-0.1,1-0.4,1.5c-0.3,0.4-0.6,0.8-1.1,1.1c-0.4,0.3-0.9,0.4-1.4,0.4C282.7,65.3,282.2,65.2,281.8,64.9z"/>
				<path class="st1" d="M292.7,87.9l8.7-21.7l-2.1-1.8l0.4-0.4l17.2,14.4l-0.4,0.4l-5.8-4.8l-6.9,17l15.9-9.4l-2.1-1.8l0.4-0.4
					l4.5,3.8l-0.4,0.4l-1.9-1.6L300,94l-0.7-0.5l8.7-21.7l-3.8-3.2l-6.9,17l7.6-4.4l-0.4,1l-11.1,6.4L292.7,87.9z M307.4,81.5
					l-0.1-0.7l7-4.2l0.4,0.5L307.4,81.5z"/>
				<path class="st1" d="M308.1,101.5l0.4-0.4l2.2,2.5l15.9-14.2l-2.2-2.5l0.4-0.4l6.8,7.6l-0.4,0.4l-2.4-2.7L313,106l2.4,2.7
					l-0.4,0.4L308.1,101.5z"/>
				<path class="st1" d="M336.2,99.3l-18,12.4l1.3,1.8l-0.5,0.3l-2.8-4.1l0.5-0.3l1.2,1.8l17.6-12.1l-1.3-1.9l0.5-0.3L336.2,99.3z
					 M322,118.9l14-19.8l1.9,2.8l-11,15.7l18.4-5.1l0.4,0.5l-23.2,6.5L322,118.9z M348.6,117.3l-0.5,0.3l-1.2-1.7l-17.6,12.1
					l1.2,1.7l-0.5,0.3l-4.5-6.5l0.5-0.3l1.4,2l18-12.4L348.6,117.3z"/>
				<path class="st1" d="M343.8,138.4l3.7,7.7l-0.6,0.3l-0.7-1.6l-3,1.4c-0.6-0.1-1.2-0.2-1.9-0.4c-0.7-0.2-1.5-0.4-2.3-0.8
					c-0.8-0.4-1.5-0.9-2.2-1.6c-0.7-0.7-1.3-1.6-1.9-2.7c-0.9-1.9-1.2-3.8-1-5.5c0.3-1.8,1-3.4,2.2-4.8c1.2-1.4,2.9-2.7,4.9-3.6
					c1.5-0.7,3-1.2,4.5-1.3c1.5-0.1,2.9,0,4.2,0.4s2.5,1.1,3.6,2c1.1,0.9,1.9,2.1,2.6,3.4c0.4,0.9,0.6,1.8,0.7,2.7s0,1.8-0.2,2.7
					l2.2,1l0.2,0.5l-5.7,2.7l-0.3-0.5c0.8-0.4,1.4-1,1.9-1.6c0.5-0.6,0.8-1.3,1.1-2.1c0.2-0.8,0.3-1.6,0.2-2.4
					c-0.1-0.8-0.3-1.6-0.6-2.3c-0.5-1.1-1.3-2-2.2-2.5c-0.9-0.5-2-0.8-3.1-0.9c-1.2,0-2.4,0.1-3.6,0.4c-1.3,0.3-2.5,0.8-3.8,1.4
					c-1.2,0.6-2.4,1.2-3.5,2c-1.1,0.7-2,1.5-2.8,2.4s-1.2,1.8-1.5,2.7c-0.2,1-0.1,2,0.4,3.1c0.4,0.8,0.8,1.4,1.3,1.8
					c0.5,0.4,1,0.7,1.5,0.8c0.5,0.2,1,0.3,1.4,0.3c0.4,0,0.8,0,1,0l4-1.9l-1.4-2.9L343.8,138.4z"/>
				<path class="st1" d="M355.2,157.7c-0.2-0.5-0.2-1,0-1.5s0.4-0.9,0.7-1.3c0.3-0.4,0.8-0.6,1.3-0.8c0.5-0.2,1-0.2,1.5,0
					c0.5,0.1,0.9,0.4,1.3,0.7s0.6,0.8,0.8,1.3c0.2,0.5,0.2,1,0,1.5c-0.1,0.5-0.4,0.9-0.7,1.3s-0.8,0.6-1.3,0.8c-0.5,0.1-1,0.2-1.5,0
					c-0.5-0.1-0.9-0.4-1.3-0.7S355.3,158.2,355.2,157.7z"/>
				<path class="st1" d="M347.1,181.9l21.3-9.6l-0.3-2.8l0.6-0.1l2.4,22.3l-0.6,0.1l-0.8-7.5l-16.7,7.5l18,4.2l-0.3-2.8l0.6-0.1
					l0.6,5.9l-0.6,0.1l-0.3-2.4l-22.9-5.4l-0.1-0.8l21.3-9.6l-0.5-5l-16.7,7.5l8.6,2.1l-0.9,0.4l-12.5-3L347.1,181.9z M362.2,187.4
					l0.4-0.6l8,1.8l-0.1,0.7L362.2,187.4z"/>
				<path class="st1" d="M348.9,202.4l0.6,0l-0.1,3.3l21.3,0.7l0.1-3.3l0.6,0l-0.3,10.3l-0.6,0l0.1-3.6l-21.3-0.7l-0.1,3.6l-0.6,0
					L348.9,202.4z"/>
				<path class="st1" d="M367.3,241.8l-0.6-0.1l0.3-2.1l-21.1-3.4l-0.3,2.1l-0.6-0.1l1.2-7.8l0.6,0.1l-0.4,2.4l21.6,3.5L367.3,241.8
					z M346.9,224.5l23.8-4.6l-0.5,3.3l-18.9,3.7l16.8,9l-0.1,0.6l-21.3-11.4L346.9,224.5z M370.7,220.1l-21.6-3.5l-0.4,2.2l-0.6-0.1
					l0.8-4.9l0.6,0.1l-0.3,2.1l21.1,3.4l0.4-2.3l0.6,0.1L370.7,220.1z"/>
				<path class="st1" d="M349.2,253.6l-2.7,8.1l-0.6-0.2l0.5-1.6l-3.2-1.1c-0.4-0.4-0.7-1-1.2-1.6c-0.4-0.6-0.8-1.3-1.1-2.1
					c-0.3-0.8-0.5-1.7-0.5-2.7c0-1,0.1-2.1,0.5-3.2c0.7-2,1.7-3.6,3.1-4.7c1.4-1.1,3.1-1.8,4.9-1.9c1.9-0.2,3.9,0.1,6.1,0.8
					c1.6,0.5,3,1.3,4.2,2.2c1.2,0.9,2.1,2,2.8,3.2c0.7,1.2,1.1,2.5,1.2,3.9c0.1,1.4,0,2.8-0.5,4.2c-0.3,0.9-0.7,1.7-1.3,2.4
					c-0.6,0.7-1.3,1.3-2,1.8l0.9,2.3l-0.2,0.5l-6-2l0.2-0.6c0.9,0.2,1.7,0.2,2.5,0.1c0.8-0.1,1.5-0.4,2.2-0.8s1.3-0.9,1.8-1.6
					c0.5-0.6,0.9-1.3,1.2-2.1c0.4-1.2,0.4-2.3,0.1-3.3c-0.3-1-0.9-1.9-1.7-2.8c-0.8-0.8-1.8-1.6-2.9-2.2c-1.1-0.6-2.4-1.2-3.7-1.6
					c-1.3-0.4-2.6-0.8-3.9-1s-2.5-0.3-3.6-0.2s-2.1,0.4-3,1c-0.8,0.6-1.4,1.4-1.8,2.6c-0.3,0.8-0.4,1.5-0.3,2.2
					c0.1,0.6,0.2,1.2,0.5,1.7s0.5,0.9,0.8,1.2s0.5,0.5,0.7,0.7l4.2,1.4l1-3L349.2,253.6z"/>
				<path class="st1" d="M344.1,275.4c0.2-0.5,0.6-0.8,1-1.1c0.4-0.3,0.9-0.4,1.4-0.4c0.5,0,1,0.1,1.5,0.3c0.5,0.2,0.8,0.6,1.1,1
					c0.3,0.4,0.4,0.9,0.5,1.4c0,0.5-0.1,1-0.3,1.5s-0.6,0.8-1,1.1c-0.4,0.3-0.9,0.4-1.4,0.5c-0.5,0-1-0.1-1.5-0.3
					c-0.5-0.2-0.8-0.6-1.1-1s-0.4-0.9-0.5-1.4C343.7,276.4,343.8,275.9,344.1,275.4z"/>
				<path class="st1" d="M321.6,287.4l22,7.8l1.7-2.2l0.5,0.4l-13.6,17.8l-0.5-0.4l4.6-6l-17.3-6.1l10.1,15.5l1.7-2.2l0.5,0.4
					l-3.6,4.7l-0.5-0.4l1.5-1.9l-12.9-19.8l0.5-0.7l22,7.8l3-4l-17.3-6.1l4.8,7.4l-1-0.3l-6.9-10.8L321.6,287.4z M328.6,301.8
					l0.7-0.1l4.5,6.8l-0.5,0.4L328.6,301.8z"/>
				<path class="st1" d="M308.7,303.4l0.4,0.4l-2.4,2.3l14.9,15.2l2.4-2.3l0.4,0.4l-7.3,7.2l-0.4-0.4l2.6-2.5l-14.9-15.2l-2.6,2.5
					l-0.4-0.4L308.7,303.4z"/>
				<path class="st1" d="M294.7,344.6l-0.4-0.5l1.7-1.3l-12.9-17l-1.7,1.3l-0.4-0.5l6.3-4.8l0.4,0.5l-1.9,1.5l13.2,17.5L294.7,344.6
					z M292,318.1l20.4,13.1l-2.7,2l-16.2-10.3l5.9,18.1l-0.5,0.4l-7.5-22.9L292,318.1z M312.2,331.4l-13.2-17.5l-1.8,1.3l-0.4-0.5
					l4-3l0.4,0.5l-1.7,1.3l12.9,17l1.8-1.4l0.4,0.5L312.2,331.4z"/>
				<path class="st1" d="M273.5,340.7l-7.5,4l-0.3-0.6l1.5-0.8l-1.6-3c0-0.6,0.1-1.2,0.3-2c0.1-0.7,0.4-1.5,0.7-2.3s0.8-1.6,1.5-2.3
					c0.7-0.7,1.5-1.4,2.6-2c1.9-1,3.7-1.4,5.5-1.2c1.8,0.2,3.4,0.8,4.9,2c1.5,1.2,2.8,2.7,3.8,4.7c0.8,1.5,1.3,3,1.5,4.5
					s0.1,2.9-0.2,4.2s-0.9,2.6-1.8,3.7c-0.9,1.1-2,2-3.3,2.7c-0.8,0.4-1.7,0.7-2.7,0.8c-0.9,0.1-1.8,0.1-2.7-0.1l-0.9,2.3l-0.5,0.2
					l-2.9-5.6l0.5-0.3c0.5,0.7,1,1.3,1.7,1.8c0.7,0.5,1.4,0.8,2.2,1c0.8,0.2,1.6,0.2,2.4,0.1c0.8-0.1,1.6-0.4,2.3-0.7
					c1.1-0.6,1.9-1.4,2.4-2.3c0.5-0.9,0.7-2,0.7-3.2c0-1.2-0.2-2.4-0.6-3.6c-0.4-1.3-0.9-2.5-1.5-3.7c-0.6-1.2-1.3-2.3-2.1-3.4
					s-1.6-2-2.5-2.7c-0.9-0.7-1.8-1.2-2.8-1.3c-1-0.2-2,0-3.1,0.6c-0.8,0.4-1.3,0.9-1.7,1.4c-0.4,0.5-0.6,1-0.8,1.5
					c-0.1,0.5-0.2,1-0.2,1.4s0,0.8,0,1l2.1,3.9l2.8-1.5L273.5,340.7z"/>
				<path class="st1" d="M254.7,353c0.5-0.2,1-0.2,1.5-0.1c0.5,0.1,0.9,0.3,1.3,0.6s0.7,0.7,0.8,1.2c0.2,0.5,0.2,1,0.1,1.5
					c-0.1,0.5-0.3,0.9-0.6,1.3c-0.3,0.4-0.7,0.7-1.2,0.8c-0.5,0.2-1,0.2-1.5,0.1c-0.5-0.1-0.9-0.3-1.3-0.6s-0.7-0.7-0.8-1.2
					c-0.2-0.5-0.2-1-0.1-1.5s0.3-0.9,0.6-1.3S254.2,353.1,254.7,353z"/>
				<path class="st1" d="M230.2,346l10.6,20.8l2.7-0.4l0.1,0.6l-22.2,3.4l-0.1-0.6l7.4-1.2l-8.2-16.4l-3.4,18.2l2.8-0.4l0.1,0.6
					l-5.8,0.9L214,371l2.4-0.4l4.4-23.2l0.8-0.1l10.6,20.8l4.9-0.8l-8.2-16.4l-1.7,8.6l-0.5-0.9l2.5-12.6L230.2,346z M225.3,361.3
					l0.6,0.4l-1.4,8.1l-0.7,0L225.3,361.3z"/>
				<path class="st1" d="M209.8,348.7l0,0.6l-3.3,0.1l0.3,21.3l3.3-0.1l0,0.6l-10.3,0.2l0-0.6l3.6-0.1l-0.3-21.3l-3.6,0.1l0-0.6
					L209.8,348.7z"/>
				<path class="st1" d="M171.2,368.9l0.1-0.6l2.1,0.2l2.4-21.2l-2.1-0.2l0.1-0.6l7.8,0.9l-0.1,0.6l-2.4-0.3l-2.5,21.8L171.2,368.9z
					 M187.6,347.8l5.7,23.6L190,371l-4.6-18.7l-8.2,17.2l-0.6-0.1l10.4-21.8L187.6,347.8z M193,371.3l2.5-21.8l-2.2-0.3l0.1-0.6
					l4.9,0.6l-0.1,0.6l-2.1-0.2l-2.4,21.2l2.3,0.3l-0.1,0.6L193,371.3z"/>
				<path class="st1" d="M158.6,351.3l-8.2-2.3l0.2-0.6l1.7,0.5l0.9-3.2c0.4-0.4,0.9-0.8,1.5-1.2c0.6-0.4,1.3-0.8,2.1-1.2
					c0.8-0.3,1.7-0.5,2.7-0.6c1-0.1,2.1,0,3.2,0.4c2,0.6,3.6,1.5,4.8,2.9c1.2,1.4,1.9,3,2.2,4.9c0.3,1.9,0.1,3.9-0.5,6.1
					c-0.5,1.6-1.1,3-2,4.3s-1.9,2.2-3.1,2.9c-1.2,0.7-2.5,1.2-3.8,1.4c-1.4,0.2-2.8,0.1-4.3-0.3c-0.9-0.3-1.7-0.7-2.5-1.2
					c-0.8-0.6-1.4-1.2-1.9-2l-2.2,1l-0.5-0.1l1.7-6l0.6,0.2c-0.2,0.9-0.2,1.7,0,2.5c0.2,0.8,0.5,1.5,0.9,2.2c0.4,0.7,1,1.2,1.6,1.7
					c0.7,0.5,1.4,0.8,2.2,1.1c1.2,0.3,2.3,0.3,3.3,0c1-0.3,1.9-0.9,2.7-1.8c0.8-0.8,1.5-1.9,2.1-3c0.6-1.2,1.1-2.4,1.4-3.7
					s0.6-2.6,0.8-3.9c0.2-1.3,0.2-2.5,0.1-3.6c-0.1-1.1-0.5-2.1-1.1-2.9c-0.6-0.8-1.5-1.4-2.6-1.7c-0.8-0.2-1.5-0.3-2.2-0.2
					c-0.6,0.1-1.2,0.3-1.6,0.6c-0.5,0.3-0.8,0.6-1.1,0.9s-0.5,0.6-0.6,0.7l-1.2,4.3l3,0.9L158.6,351.3z"/>
				<path class="st1" d="M136.6,347.2c0.5,0.2,0.9,0.5,1.2,1c0.3,0.4,0.5,0.9,0.5,1.4s0,1-0.2,1.5c-0.2,0.5-0.5,0.9-1,1.2
					c-0.4,0.3-0.9,0.5-1.4,0.5c-0.5,0.1-1,0-1.5-0.2c-0.5-0.2-0.9-0.5-1.2-1c-0.3-0.4-0.5-0.9-0.5-1.4c-0.1-0.5,0-1,0.2-1.5
					c0.2-0.5,0.5-0.9,1-1.1c0.4-0.3,0.9-0.5,1.4-0.5C135.6,346.9,136.1,347,136.6,347.2z"/>
				<path class="st1" d="M123.6,325.3l-6.8,22.4l2.3,1.6l-0.3,0.5l-18.4-12.8l0.3-0.5l6.2,4.3l5.4-17.5l-15,10.8l2.3,1.6l-0.3,0.5
					l-4.8-3.4l0.3-0.5l2,1.4l19.2-13.7l0.7,0.5l-6.8,22.4l4.1,2.9l5.3-17.5l-7.2,5.1l0.3-1l10.5-7.4L123.6,325.3z M109.5,333
					l0.2,0.7l-6.6,4.8l-0.5-0.5L109.5,333z"/>
				<path class="st1" d="M107,313.2l-0.4,0.4l-2.4-2.3l-14.5,15.6l2.4,2.3l-0.4,0.4l-7.5-7l0.4-0.4l2.6,2.5l14.5-15.6l-2.6-2.5
					l0.4-0.4L107,313.2z"/>
				<path class="st1" d="M65.2,301l0.4-0.4l1.3,1.6l16.4-13.6l-1.3-1.6l0.4-0.4l5,6l-0.4,0.4l-1.5-1.9l-16.8,14L65.2,301z
					 M91.6,297.1l-12.2,21l-2.2-2.6l9.6-16.7L69,305.6l-0.4-0.5l22.6-8.5L91.6,297.1z M79.2,317.9l16.8-14l-1.4-1.7l0.4-0.4l3.2,3.8
					l-0.4,0.4l-1.4-1.6L80.1,318l1.5,1.8l-0.4,0.4L79.2,317.9z"/>
				<path class="st1" d="M68.2,279.6l-4.3-7.4l0.6-0.3l0.9,1.5l2.9-1.7c0.6,0,1.2,0.1,2,0.2c0.7,0.1,1.5,0.3,2.3,0.6
					c0.8,0.3,1.6,0.8,2.4,1.4c0.8,0.6,1.5,1.5,2.1,2.5c1.1,1.8,1.6,3.6,1.5,5.4c-0.1,1.8-0.7,3.5-1.8,5c-1.1,1.6-2.6,2.9-4.6,4.1
					c-1.5,0.9-2.9,1.4-4.4,1.7c-1.5,0.3-2.9,0.3-4.3,0s-2.6-0.8-3.7-1.6c-1.1-0.8-2.1-1.9-2.9-3.2c-0.5-0.8-0.8-1.7-1-2.6
					c-0.2-0.9-0.2-1.8,0-2.7l-2.3-0.8l-0.3-0.5l5.4-3.2l0.3,0.5c-0.7,0.5-1.3,1.1-1.7,1.8c-0.4,0.7-0.7,1.4-0.9,2.2
					c-0.1,0.8-0.2,1.6,0,2.4c0.1,0.8,0.4,1.6,0.8,2.3c0.6,1.1,1.4,1.8,2.4,2.3s2,0.6,3.2,0.6c1.2-0.1,2.4-0.3,3.6-0.8
					c1.2-0.4,2.4-1,3.6-1.7c1.2-0.7,2.3-1.4,3.3-2.3c1-0.8,1.9-1.7,2.6-2.6c0.7-0.9,1.1-1.9,1.2-2.9c0.1-1-0.1-2-0.7-3.1
					c-0.4-0.7-0.9-1.3-1.4-1.6c-0.5-0.4-1.1-0.6-1.6-0.7s-1-0.2-1.4-0.1c-0.4,0-0.8,0.1-1,0.1l-3.9,2.3l1.6,2.7L68.2,279.6z"/>
				<path class="st1" d="M55.1,261.4c0.2,0.5,0.3,1,0.2,1.5c-0.1,0.5-0.3,1-0.6,1.4s-0.7,0.7-1.2,0.9c-0.5,0.2-1,0.3-1.5,0.2
					s-0.9-0.3-1.4-0.6c-0.4-0.3-0.7-0.7-0.9-1.2s-0.3-1-0.2-1.5c0.1-0.5,0.3-0.9,0.6-1.4c0.3-0.4,0.7-0.7,1.2-0.9
					c0.5-0.2,1-0.3,1.5-0.2c0.5,0.1,1,0.3,1.4,0.6C54.6,260.6,54.9,261,55.1,261.4z"/>
				<path class="st1" d="M60.9,236.6l-20.3,11.5l0.5,2.7l-0.6,0.1l-4.4-22l0.6-0.1l1.5,7.4l16-9l-18.3-2.6l0.6,2.7l-0.6,0.1
					l-1.2-5.8l0.6-0.1l0.5,2.4l23.3,3.3l0.2,0.8l-20.3,11.5l1,4.9l16-9l-8.7-1.3l0.9-0.5l12.7,1.9L60.9,236.6z M45.4,232.5l-0.3,0.6
					l-8.1-1.1l0-0.7L45.4,232.5z"/>
				<path class="st1" d="M57.2,216.4l-0.6,0l-0.2-3.3l-21.3,1.2l0.2,3.3l-0.6,0l-0.6-10.2l0.6,0L35,211l21.3-1.2l-0.2-3.6l0.6,0
					L57.2,216.4z"/>
				<path class="st1" d="M34,200.6l21.9,1.5l0.2-2.2l0.6,0l-0.3,5l-0.6,0l0.1-2.1l-21.3-1.5l-0.2,2.3l-0.6,0L34,200.6z M57.2,194.2
					l-23.3,6.8l0.2-3.4l18.4-5.4L35,184.7l0-0.6l22.2,9.4L57.2,194.2z M35.4,178.8l0.6,0l-0.1,2.1l21.3,1.4l0.1-2.1l0.6,0l-0.5,7.8
					l-0.6,0l0.2-2.4l-21.9-1.5L35.4,178.8z"/>
				<path class="st1" d="M52.4,165.3l1.9-8.3l0.6,0.2l-0.4,1.7l3.3,0.8c0.4,0.4,0.8,0.9,1.3,1.5c0.5,0.6,0.9,1.3,1.3,2
					s0.6,1.7,0.8,2.6s0.1,2.1-0.2,3.3c-0.5,2.1-1.4,3.7-2.7,4.9c-1.3,1.2-2.9,2-4.7,2.4s-3.9,0.3-6.1-0.2c-1.6-0.4-3.1-1-4.4-1.8
					c-1.3-0.8-2.3-1.8-3.1-2.9c-0.8-1.1-1.3-2.4-1.6-3.8c-0.3-1.4-0.2-2.8,0.1-4.3c0.2-0.9,0.6-1.8,1.1-2.6c0.5-0.8,1.1-1.4,1.9-2
					l-1.1-2.2l0.1-0.5l6.1,1.4l-0.1,0.6c-0.9-0.1-1.7-0.1-2.5,0.1c-0.8,0.2-1.5,0.5-2.1,1c-0.6,0.5-1.2,1-1.6,1.7
					c-0.5,0.7-0.8,1.4-1,2.2c-0.3,1.2-0.2,2.3,0.2,3.3c0.4,1,1,1.9,1.9,2.6c0.9,0.8,1.9,1.4,3.1,1.9c1.2,0.5,2.5,1,3.8,1.3
					c1.3,0.3,2.6,0.5,4,0.6c1.3,0.1,2.5,0.1,3.6-0.1c1.1-0.2,2.1-0.6,2.9-1.2c0.8-0.6,1.3-1.5,1.6-2.7c0.2-0.8,0.2-1.6,0.1-2.2
					s-0.4-1.2-0.6-1.6c-0.3-0.4-0.6-0.8-0.9-1.1c-0.3-0.3-0.6-0.5-0.8-0.6l-4.4-1l-0.7,3.1L52.4,165.3z"/>
				<path class="st1" d="M58.6,135.9c-0.2,0.5-0.5,0.9-1,1.2c-0.4,0.3-0.9,0.5-1.4,0.5c-0.5,0.1-1,0-1.5-0.3c-0.5-0.2-0.9-0.5-1.2-1
					c-0.3-0.4-0.5-0.9-0.5-1.4s0-1,0.3-1.5c0.2-0.5,0.5-0.9,1-1.2c0.4-0.3,0.9-0.5,1.4-0.5c0.5-0.1,1,0,1.5,0.3
					c0.5,0.2,0.9,0.5,1.1,1c0.3,0.4,0.5,0.9,0.5,1.4S58.8,135.4,58.6,135.9z"/>
				<path class="st1" d="M84.7,117.1l-22-8l-1.7,2.2l-0.5-0.4l13.8-17.7l0.5,0.4l-4.6,5.9l17.2,6.3l-9.9-15.6l-1.7,2.2l-0.5-0.4
					l3.6-4.6l0.5,0.4l-1.5,1.9l12.7,19.9l-0.5,0.7l-22-8l-3.1,3.9l17.2,6.3l-4.7-7.4l1,0.3l6.8,10.9L84.7,117.1z M77.8,102.6
					l-0.7,0.1l-4.5-6.9l0.5-0.4L77.8,102.6z"/>
				<path class="st1" d="M97.7,101.2l-0.4-0.4l2.4-2.3L84.9,83.1l-2.4,2.3L82.1,85l7.4-7.1l0.4,0.4l-2.6,2.5l14.8,15.4l2.6-2.5
					l0.4,0.4L97.7,101.2z"/>
				<path class="st1" d="M94.5,73.2l13.1,17.6l1.8-1.3l0.3,0.5l-4,3l-0.3-0.5l1.7-1.3L94.4,74l-1.8,1.4l-0.3-0.5L94.5,73.2z
					 M114.6,86.7L94.3,73.4l2.7-2l16.1,10.5l-5.8-18.2l0.5-0.4l7.3,23L114.6,86.7z M112.1,60.1l0.3,0.5l-1.7,1.3l12.7,17.1l1.7-1.3
					l0.3,0.5l-6.3,4.7l-0.3-0.5l1.9-1.4l-13.1-17.6L112.1,60.1z"/>
				<path class="st1" d="M133.3,64.2l7.6-3.9l0.3,0.6l-1.5,0.8l1.5,3c-0.1,0.6-0.1,1.2-0.3,2c-0.1,0.7-0.4,1.5-0.7,2.3
					c-0.3,0.8-0.8,1.6-1.5,2.3s-1.5,1.4-2.6,1.9c-1.9,1-3.7,1.4-5.5,1.2s-3.4-0.9-4.9-2.1s-2.8-2.8-3.8-4.8c-0.8-1.5-1.3-3-1.5-4.5
					s-0.1-2.9,0.2-4.2c0.4-1.3,1-2.6,1.8-3.7c0.9-1.1,2-2,3.3-2.7c0.8-0.4,1.7-0.7,2.7-0.8s1.8-0.1,2.7,0.1l0.9-2.3l0.5-0.2l2.9,5.6
					l-0.5,0.3c-0.5-0.7-1-1.3-1.7-1.8c-0.7-0.5-1.4-0.8-2.1-1c-0.8-0.2-1.6-0.2-2.4-0.1c-0.8,0.1-1.6,0.3-2.3,0.7
					c-1.1,0.6-1.9,1.3-2.4,2.3c-0.5,0.9-0.7,2-0.7,3.2s0.2,2.4,0.6,3.6c0.4,1.3,0.9,2.5,1.5,3.7c0.6,1.2,1.3,2.3,2.1,3.4
					c0.8,1.1,1.6,2,2.5,2.7c0.9,0.7,1.8,1.2,2.8,1.4c1,0.2,2,0,3.1-0.6c0.8-0.4,1.3-0.8,1.7-1.4c0.4-0.5,0.6-1,0.8-1.5
					c0.1-0.5,0.2-1,0.2-1.4c0-0.4,0-0.8,0-1l-2.1-4l-2.8,1.5L133.3,64.2z"/>
				<path class="st1" d="M167.3,47.9c-0.5,0.1-1,0.1-1.5-0.1c-0.5-0.2-0.9-0.4-1.2-0.8c-0.4-0.4-0.6-0.8-0.7-1.3
					c-0.1-0.5-0.1-1,0.1-1.5c0.2-0.5,0.4-0.9,0.8-1.2c0.4-0.3,0.8-0.6,1.3-0.7c0.5-0.1,1-0.1,1.5,0.1c0.5,0.2,0.9,0.4,1.2,0.8
					c0.4,0.4,0.6,0.8,0.7,1.3c0.1,0.5,0.1,1-0.1,1.5c-0.2,0.5-0.4,0.9-0.8,1.3C168.3,47.5,167.8,47.7,167.3,47.9z"/>
			</g>
		</g>
	</g>
</g>
</svg>
